G04 MADE WITH FRITZING*
G04 WWW.FRITZING.ORG*
G04 DOUBLE SIDED*
G04 HOLES PLATED*
G04 CONTOUR ON CENTER OF CONTOUR VECTOR*
%ASAXBY*%
%FSLAX23Y23*%
%MOIN*%
%OFA0B0*%
%SFA1.0B1.0*%
%ADD10C,0.128110*%
%ADD11C,0.108425*%
%ADD12C,0.088000*%
%ADD13C,0.078000*%
%ADD14C,0.109000*%
%ADD15C,0.080000*%
%ADD16C,0.085000*%
%ADD17R,0.088000X0.088000*%
%ADD18R,0.109000X0.109000*%
%ADD19R,0.085000X0.085000*%
%LNMASK1*%
G90*
G70*
G54D10*
X159Y1750D03*
X159Y214D03*
X159Y766D03*
X159Y1238D03*
X1812Y1750D03*
X1812Y1238D03*
X1812Y214D03*
X1812Y766D03*
G54D11*
X769Y1002D03*
X985Y1002D03*
X1202Y1002D03*
G54D12*
X827Y797D03*
X727Y797D03*
X1076Y1247D03*
X1076Y1347D03*
G54D13*
X1226Y1647D03*
X1226Y1547D03*
X1226Y1447D03*
X1226Y1347D03*
X1526Y1347D03*
X1526Y1447D03*
X1526Y1547D03*
X1526Y1647D03*
X1226Y1647D03*
X1226Y1547D03*
X1226Y1447D03*
X1226Y1347D03*
X1526Y1347D03*
X1526Y1447D03*
X1526Y1547D03*
X1526Y1647D03*
G54D12*
X1177Y97D03*
X1277Y97D03*
X426Y1747D03*
X426Y1647D03*
G54D14*
X776Y1447D03*
X776Y1247D03*
X376Y1347D03*
G54D15*
X1126Y1546D03*
X1126Y1647D03*
G54D16*
X1026Y1647D03*
X626Y1647D03*
X1326Y1847D03*
X1226Y1847D03*
G54D15*
X1426Y1247D03*
X1526Y1247D03*
G54D16*
X676Y1747D03*
X976Y1747D03*
G54D13*
X1227Y597D03*
X1227Y497D03*
X1227Y397D03*
X1227Y297D03*
X1527Y297D03*
X1527Y397D03*
X1527Y497D03*
X1527Y597D03*
X1227Y597D03*
X1227Y497D03*
X1227Y397D03*
X1227Y297D03*
X1527Y297D03*
X1527Y397D03*
X1527Y497D03*
X1527Y597D03*
G54D16*
X1427Y797D03*
X1327Y797D03*
G54D12*
X527Y547D03*
X527Y447D03*
G54D14*
X927Y397D03*
X927Y197D03*
X527Y297D03*
G54D16*
X1027Y797D03*
X1027Y397D03*
G54D15*
X1127Y397D03*
X1127Y497D03*
G54D17*
X426Y1747D03*
G54D18*
X776Y1247D03*
G54D19*
X1326Y1847D03*
X1427Y797D03*
G54D17*
X527Y547D03*
G54D18*
X927Y197D03*
G04 End of Mask1*
M02*