G04 MADE WITH FRITZING*
G04 WWW.FRITZING.ORG*
G04 DOUBLE SIDED*
G04 HOLES PLATED*
G04 CONTOUR ON CENTER OF CONTOUR VECTOR*
%ASAXBY*%
%FSLAX23Y23*%
%MOIN*%
%OFA0B0*%
%SFA1.0B1.0*%
%ADD10C,0.008*%
%LNCONTOUR*%
G90*
G70*
G54D10*
X104Y1968D02*
X105Y1968D01*
X106Y1968D01*
X107Y1968D01*
X108Y1968D01*
X109Y1968D01*
X110Y1968D01*
X111Y1968D01*
X112Y1968D01*
X113Y1968D01*
X114Y1968D01*
X115Y1968D01*
X116Y1968D01*
X117Y1968D01*
X118Y1968D01*
X119Y1968D01*
X120Y1968D01*
X121Y1968D01*
X122Y1968D01*
X123Y1968D01*
X124Y1968D01*
X125Y1968D01*
X126Y1968D01*
X127Y1968D01*
X128Y1968D01*
X129Y1968D01*
X130Y1968D01*
X131Y1968D01*
X132Y1968D01*
X133Y1968D01*
X134Y1968D01*
X135Y1968D01*
X136Y1968D01*
X137Y1968D01*
X138Y1968D01*
X139Y1968D01*
X140Y1968D01*
X141Y1968D01*
X142Y1968D01*
X143Y1968D01*
X144Y1968D01*
X145Y1968D01*
X146Y1968D01*
X147Y1968D01*
X148Y1968D01*
X149Y1968D01*
X150Y1968D01*
X151Y1968D01*
X152Y1968D01*
X153Y1968D01*
X154Y1968D01*
X155Y1968D01*
X156Y1968D01*
X157Y1968D01*
X158Y1968D01*
X159Y1968D01*
X160Y1968D01*
X161Y1968D01*
X162Y1968D01*
X163Y1968D01*
X164Y1968D01*
X165Y1968D01*
X166Y1968D01*
X167Y1968D01*
X168Y1968D01*
X169Y1968D01*
X170Y1968D01*
X171Y1968D01*
X172Y1968D01*
X173Y1968D01*
X174Y1968D01*
X175Y1968D01*
X176Y1968D01*
X177Y1968D01*
X178Y1968D01*
X179Y1968D01*
X180Y1968D01*
X181Y1968D01*
X182Y1968D01*
X183Y1968D01*
X184Y1968D01*
X185Y1968D01*
X186Y1968D01*
X187Y1968D01*
X188Y1968D01*
X189Y1968D01*
X190Y1968D01*
X191Y1968D01*
X192Y1968D01*
X193Y1968D01*
X194Y1968D01*
X195Y1968D01*
X196Y1968D01*
X197Y1968D01*
X198Y1968D01*
X199Y1968D01*
X200Y1968D01*
X201Y1968D01*
X202Y1968D01*
X203Y1968D01*
X204Y1968D01*
X205Y1968D01*
X206Y1968D01*
X207Y1968D01*
X208Y1968D01*
X209Y1968D01*
X210Y1968D01*
X211Y1968D01*
X212Y1968D01*
X213Y1968D01*
X214Y1968D01*
X215Y1968D01*
X216Y1968D01*
X217Y1968D01*
X218Y1968D01*
X219Y1968D01*
X220Y1968D01*
X221Y1968D01*
X222Y1968D01*
X223Y1968D01*
X224Y1968D01*
X225Y1968D01*
X226Y1968D01*
X227Y1968D01*
X228Y1968D01*
X229Y1968D01*
X230Y1968D01*
X231Y1968D01*
X232Y1968D01*
X233Y1968D01*
X234Y1968D01*
X235Y1968D01*
X236Y1968D01*
X237Y1968D01*
X238Y1968D01*
X239Y1968D01*
X240Y1968D01*
X241Y1968D01*
X242Y1968D01*
X243Y1968D01*
X244Y1968D01*
X245Y1968D01*
X246Y1968D01*
X247Y1968D01*
X248Y1968D01*
X249Y1968D01*
X250Y1968D01*
X251Y1968D01*
X252Y1968D01*
X253Y1968D01*
X254Y1968D01*
X255Y1968D01*
X256Y1968D01*
X257Y1968D01*
X258Y1968D01*
X259Y1968D01*
X260Y1968D01*
X261Y1968D01*
X262Y1968D01*
X263Y1968D01*
X264Y1968D01*
X265Y1968D01*
X266Y1968D01*
X267Y1968D01*
X268Y1968D01*
X269Y1968D01*
X270Y1968D01*
X271Y1968D01*
X272Y1968D01*
X273Y1968D01*
X274Y1968D01*
X275Y1968D01*
X276Y1968D01*
X277Y1968D01*
X278Y1968D01*
X279Y1968D01*
X280Y1968D01*
X281Y1968D01*
X282Y1968D01*
X283Y1968D01*
X284Y1968D01*
X285Y1968D01*
X286Y1968D01*
X287Y1968D01*
X288Y1968D01*
X289Y1968D01*
X290Y1968D01*
X291Y1968D01*
X292Y1968D01*
X293Y1968D01*
X294Y1968D01*
X295Y1968D01*
X296Y1968D01*
X297Y1968D01*
X298Y1968D01*
X299Y1968D01*
X300Y1968D01*
X301Y1968D01*
X302Y1968D01*
X303Y1968D01*
X304Y1968D01*
X305Y1968D01*
X306Y1968D01*
X307Y1968D01*
X308Y1968D01*
X309Y1968D01*
X310Y1968D01*
X311Y1968D01*
X312Y1968D01*
X313Y1968D01*
X314Y1968D01*
X315Y1968D01*
X316Y1968D01*
X317Y1968D01*
X318Y1968D01*
X319Y1968D01*
X320Y1968D01*
X321Y1968D01*
X322Y1968D01*
X323Y1968D01*
X324Y1968D01*
X325Y1968D01*
X326Y1968D01*
X327Y1968D01*
X328Y1968D01*
X329Y1968D01*
X330Y1968D01*
X331Y1968D01*
X332Y1968D01*
X333Y1968D01*
X334Y1968D01*
X335Y1968D01*
X336Y1968D01*
X337Y1968D01*
X338Y1968D01*
X339Y1968D01*
X340Y1968D01*
X341Y1968D01*
X342Y1968D01*
X343Y1968D01*
X344Y1968D01*
X345Y1968D01*
X346Y1968D01*
X347Y1968D01*
X348Y1968D01*
X349Y1968D01*
X350Y1968D01*
X351Y1968D01*
X352Y1968D01*
X353Y1968D01*
X354Y1968D01*
X355Y1968D01*
X356Y1968D01*
X357Y1968D01*
X358Y1968D01*
X359Y1968D01*
X360Y1968D01*
X361Y1968D01*
X362Y1968D01*
X363Y1968D01*
X364Y1968D01*
X365Y1968D01*
X366Y1968D01*
X367Y1968D01*
X368Y1968D01*
X369Y1968D01*
X370Y1968D01*
X371Y1968D01*
X372Y1968D01*
X373Y1968D01*
X374Y1968D01*
X375Y1968D01*
X376Y1968D01*
X377Y1968D01*
X378Y1968D01*
X379Y1968D01*
X380Y1968D01*
X381Y1968D01*
X382Y1968D01*
X383Y1968D01*
X384Y1968D01*
X385Y1968D01*
X386Y1968D01*
X387Y1968D01*
X388Y1968D01*
X389Y1968D01*
X390Y1968D01*
X391Y1968D01*
X392Y1968D01*
X393Y1968D01*
X394Y1968D01*
X395Y1968D01*
X396Y1968D01*
X397Y1968D01*
X398Y1968D01*
X399Y1968D01*
X400Y1968D01*
X401Y1968D01*
X402Y1968D01*
X403Y1968D01*
X404Y1968D01*
X405Y1968D01*
X406Y1968D01*
X407Y1968D01*
X408Y1968D01*
X409Y1968D01*
X410Y1968D01*
X411Y1968D01*
X412Y1968D01*
X413Y1968D01*
X414Y1968D01*
X415Y1968D01*
X416Y1968D01*
X417Y1968D01*
X418Y1968D01*
X419Y1968D01*
X420Y1968D01*
X421Y1968D01*
X422Y1968D01*
X423Y1968D01*
X424Y1968D01*
X425Y1968D01*
X426Y1968D01*
X427Y1968D01*
X428Y1968D01*
X429Y1968D01*
X430Y1968D01*
X431Y1968D01*
X432Y1968D01*
X433Y1968D01*
X434Y1968D01*
X435Y1968D01*
X436Y1968D01*
X437Y1968D01*
X438Y1968D01*
X439Y1968D01*
X440Y1968D01*
X441Y1968D01*
X442Y1968D01*
X443Y1968D01*
X444Y1968D01*
X445Y1968D01*
X446Y1968D01*
X447Y1968D01*
X448Y1968D01*
X449Y1968D01*
X450Y1968D01*
X451Y1968D01*
X452Y1968D01*
X453Y1968D01*
X454Y1968D01*
X455Y1968D01*
X456Y1968D01*
X457Y1968D01*
X458Y1968D01*
X459Y1968D01*
X460Y1968D01*
X461Y1968D01*
X462Y1968D01*
X463Y1968D01*
X464Y1968D01*
X465Y1968D01*
X466Y1968D01*
X467Y1968D01*
X468Y1968D01*
X469Y1968D01*
X470Y1968D01*
X471Y1968D01*
X472Y1968D01*
X473Y1968D01*
X474Y1968D01*
X475Y1968D01*
X476Y1968D01*
X477Y1968D01*
X478Y1968D01*
X479Y1968D01*
X480Y1968D01*
X481Y1968D01*
X482Y1968D01*
X483Y1968D01*
X484Y1968D01*
X485Y1968D01*
X486Y1968D01*
X487Y1968D01*
X488Y1968D01*
X489Y1968D01*
X490Y1968D01*
X491Y1968D01*
X492Y1968D01*
X493Y1968D01*
X494Y1968D01*
X495Y1968D01*
X496Y1968D01*
X497Y1968D01*
X498Y1968D01*
X499Y1968D01*
X500Y1968D01*
X501Y1968D01*
X502Y1968D01*
X503Y1968D01*
X504Y1968D01*
X505Y1968D01*
X506Y1968D01*
X507Y1968D01*
X508Y1968D01*
X509Y1968D01*
X510Y1968D01*
X511Y1968D01*
X512Y1968D01*
X513Y1968D01*
X514Y1968D01*
X515Y1968D01*
X516Y1968D01*
X517Y1968D01*
X518Y1968D01*
X519Y1968D01*
X520Y1968D01*
X521Y1968D01*
X522Y1968D01*
X523Y1968D01*
X524Y1968D01*
X525Y1968D01*
X526Y1968D01*
X527Y1968D01*
X528Y1968D01*
X529Y1968D01*
X530Y1968D01*
X531Y1968D01*
X532Y1968D01*
X533Y1968D01*
X534Y1968D01*
X535Y1968D01*
X536Y1968D01*
X537Y1968D01*
X538Y1968D01*
X539Y1968D01*
X540Y1968D01*
X541Y1968D01*
X542Y1968D01*
X543Y1968D01*
X544Y1968D01*
X545Y1968D01*
X546Y1968D01*
X547Y1968D01*
X548Y1968D01*
X549Y1968D01*
X550Y1968D01*
X551Y1968D01*
X552Y1968D01*
X553Y1968D01*
X554Y1968D01*
X555Y1968D01*
X556Y1968D01*
X557Y1968D01*
X558Y1968D01*
X559Y1968D01*
X560Y1968D01*
X561Y1968D01*
X562Y1968D01*
X563Y1968D01*
X564Y1968D01*
X565Y1968D01*
X566Y1968D01*
X567Y1968D01*
X568Y1968D01*
X569Y1968D01*
X570Y1968D01*
X571Y1968D01*
X572Y1968D01*
X573Y1968D01*
X574Y1968D01*
X575Y1968D01*
X576Y1968D01*
X577Y1968D01*
X578Y1968D01*
X579Y1968D01*
X580Y1968D01*
X581Y1968D01*
X582Y1968D01*
X583Y1968D01*
X584Y1968D01*
X585Y1968D01*
X586Y1968D01*
X587Y1968D01*
X588Y1968D01*
X589Y1968D01*
X590Y1968D01*
X591Y1968D01*
X592Y1968D01*
X593Y1968D01*
X594Y1968D01*
X595Y1968D01*
X596Y1968D01*
X597Y1968D01*
X598Y1968D01*
X599Y1968D01*
X600Y1968D01*
X601Y1968D01*
X602Y1968D01*
X603Y1968D01*
X604Y1968D01*
X605Y1968D01*
X606Y1968D01*
X607Y1968D01*
X608Y1968D01*
X609Y1968D01*
X610Y1968D01*
X611Y1968D01*
X612Y1968D01*
X613Y1968D01*
X614Y1968D01*
X615Y1968D01*
X616Y1968D01*
X617Y1968D01*
X618Y1968D01*
X619Y1968D01*
X620Y1968D01*
X621Y1968D01*
X622Y1968D01*
X623Y1968D01*
X624Y1968D01*
X625Y1968D01*
X626Y1968D01*
X627Y1968D01*
X628Y1968D01*
X629Y1968D01*
X630Y1968D01*
X631Y1968D01*
X632Y1968D01*
X633Y1968D01*
X634Y1968D01*
X635Y1968D01*
X636Y1968D01*
X637Y1968D01*
X638Y1968D01*
X639Y1968D01*
X640Y1968D01*
X641Y1968D01*
X642Y1968D01*
X643Y1968D01*
X644Y1968D01*
X645Y1968D01*
X646Y1968D01*
X647Y1968D01*
X648Y1968D01*
X649Y1968D01*
X650Y1968D01*
X651Y1968D01*
X652Y1968D01*
X653Y1968D01*
X654Y1968D01*
X655Y1968D01*
X656Y1968D01*
X657Y1968D01*
X658Y1968D01*
X659Y1968D01*
X660Y1968D01*
X661Y1968D01*
X662Y1968D01*
X663Y1968D01*
X664Y1968D01*
X665Y1968D01*
X666Y1968D01*
X667Y1968D01*
X668Y1968D01*
X669Y1968D01*
X670Y1968D01*
X671Y1968D01*
X672Y1968D01*
X673Y1968D01*
X674Y1968D01*
X675Y1968D01*
X676Y1968D01*
X677Y1968D01*
X678Y1968D01*
X679Y1968D01*
X680Y1968D01*
X681Y1968D01*
X682Y1968D01*
X683Y1968D01*
X684Y1968D01*
X685Y1968D01*
X686Y1968D01*
X687Y1968D01*
X688Y1968D01*
X689Y1968D01*
X690Y1968D01*
X691Y1968D01*
X692Y1968D01*
X693Y1968D01*
X694Y1968D01*
X695Y1968D01*
X696Y1968D01*
X697Y1968D01*
X698Y1968D01*
X699Y1968D01*
X700Y1968D01*
X701Y1968D01*
X702Y1968D01*
X703Y1968D01*
X704Y1968D01*
X705Y1968D01*
X706Y1968D01*
X707Y1968D01*
X708Y1968D01*
X709Y1968D01*
X710Y1968D01*
X711Y1968D01*
X712Y1968D01*
X713Y1968D01*
X714Y1968D01*
X715Y1968D01*
X716Y1968D01*
X717Y1968D01*
X718Y1968D01*
X719Y1968D01*
X720Y1968D01*
X721Y1968D01*
X722Y1968D01*
X723Y1968D01*
X724Y1968D01*
X725Y1968D01*
X726Y1968D01*
X727Y1968D01*
X728Y1968D01*
X729Y1968D01*
X730Y1968D01*
X731Y1968D01*
X732Y1968D01*
X733Y1968D01*
X734Y1968D01*
X735Y1968D01*
X736Y1968D01*
X737Y1968D01*
X738Y1968D01*
X739Y1968D01*
X740Y1968D01*
X741Y1968D01*
X742Y1968D01*
X743Y1968D01*
X744Y1968D01*
X745Y1968D01*
X746Y1968D01*
X747Y1968D01*
X748Y1968D01*
X749Y1968D01*
X750Y1968D01*
X751Y1968D01*
X752Y1968D01*
X753Y1968D01*
X754Y1968D01*
X755Y1968D01*
X756Y1968D01*
X757Y1968D01*
X758Y1968D01*
X759Y1968D01*
X760Y1968D01*
X761Y1968D01*
X762Y1968D01*
X763Y1968D01*
X764Y1968D01*
X765Y1968D01*
X766Y1968D01*
X767Y1968D01*
X768Y1968D01*
X769Y1968D01*
X770Y1968D01*
X771Y1968D01*
X772Y1968D01*
X773Y1968D01*
X774Y1968D01*
X775Y1968D01*
X776Y1968D01*
X777Y1968D01*
X778Y1968D01*
X779Y1968D01*
X780Y1968D01*
X781Y1968D01*
X782Y1968D01*
X783Y1968D01*
X784Y1968D01*
X785Y1968D01*
X786Y1968D01*
X787Y1968D01*
X788Y1968D01*
X789Y1968D01*
X790Y1968D01*
X791Y1968D01*
X792Y1968D01*
X793Y1968D01*
X794Y1968D01*
X795Y1968D01*
X796Y1968D01*
X797Y1968D01*
X798Y1968D01*
X799Y1968D01*
X800Y1968D01*
X801Y1968D01*
X802Y1968D01*
X803Y1968D01*
X804Y1968D01*
X805Y1968D01*
X806Y1968D01*
X807Y1968D01*
X808Y1968D01*
X809Y1968D01*
X810Y1968D01*
X811Y1968D01*
X812Y1968D01*
X813Y1968D01*
X814Y1968D01*
X815Y1968D01*
X816Y1968D01*
X817Y1968D01*
X818Y1968D01*
X819Y1968D01*
X820Y1968D01*
X821Y1968D01*
X822Y1968D01*
X823Y1968D01*
X824Y1968D01*
X825Y1968D01*
X826Y1968D01*
X827Y1968D01*
X828Y1968D01*
X829Y1968D01*
X830Y1968D01*
X831Y1968D01*
X832Y1968D01*
X833Y1968D01*
X834Y1968D01*
X835Y1968D01*
X836Y1968D01*
X837Y1968D01*
X838Y1968D01*
X839Y1968D01*
X840Y1968D01*
X841Y1968D01*
X842Y1968D01*
X843Y1968D01*
X844Y1968D01*
X845Y1968D01*
X846Y1968D01*
X847Y1968D01*
X848Y1968D01*
X849Y1968D01*
X850Y1968D01*
X851Y1968D01*
X852Y1968D01*
X853Y1968D01*
X854Y1968D01*
X855Y1968D01*
X856Y1968D01*
X857Y1968D01*
X858Y1968D01*
X859Y1968D01*
X860Y1968D01*
X861Y1968D01*
X862Y1968D01*
X863Y1968D01*
X864Y1968D01*
X865Y1968D01*
X866Y1968D01*
X867Y1968D01*
X868Y1968D01*
X869Y1968D01*
X870Y1968D01*
X871Y1968D01*
X872Y1968D01*
X873Y1968D01*
X874Y1968D01*
X875Y1968D01*
X876Y1968D01*
X877Y1968D01*
X878Y1968D01*
X879Y1968D01*
X880Y1968D01*
X881Y1968D01*
X882Y1968D01*
X883Y1968D01*
X884Y1968D01*
X885Y1968D01*
X886Y1968D01*
X887Y1968D01*
X888Y1968D01*
X889Y1968D01*
X890Y1968D01*
X891Y1968D01*
X892Y1968D01*
X893Y1968D01*
X894Y1968D01*
X895Y1968D01*
X896Y1968D01*
X897Y1968D01*
X898Y1968D01*
X899Y1968D01*
X900Y1968D01*
X901Y1968D01*
X902Y1968D01*
X903Y1968D01*
X904Y1968D01*
X905Y1968D01*
X906Y1968D01*
X907Y1968D01*
X908Y1968D01*
X909Y1968D01*
X910Y1968D01*
X911Y1968D01*
X912Y1968D01*
X913Y1968D01*
X914Y1968D01*
X915Y1968D01*
X916Y1968D01*
X917Y1968D01*
X918Y1968D01*
X919Y1968D01*
X920Y1968D01*
X921Y1968D01*
X922Y1968D01*
X923Y1968D01*
X924Y1968D01*
X925Y1968D01*
X926Y1968D01*
X927Y1968D01*
X928Y1968D01*
X929Y1968D01*
X930Y1968D01*
X931Y1968D01*
X932Y1968D01*
X933Y1968D01*
X934Y1968D01*
X935Y1968D01*
X936Y1968D01*
X937Y1968D01*
X938Y1968D01*
X939Y1968D01*
X940Y1968D01*
X941Y1968D01*
X942Y1968D01*
X943Y1968D01*
X944Y1968D01*
X945Y1968D01*
X946Y1968D01*
X947Y1968D01*
X948Y1968D01*
X949Y1968D01*
X950Y1968D01*
X951Y1968D01*
X952Y1968D01*
X953Y1968D01*
X954Y1968D01*
X955Y1968D01*
X956Y1968D01*
X957Y1968D01*
X958Y1968D01*
X959Y1968D01*
X960Y1968D01*
X961Y1968D01*
X962Y1968D01*
X963Y1968D01*
X964Y1968D01*
X965Y1968D01*
X966Y1968D01*
X967Y1968D01*
X968Y1968D01*
X969Y1968D01*
X970Y1968D01*
X971Y1968D01*
X972Y1968D01*
X973Y1968D01*
X974Y1968D01*
X975Y1968D01*
X976Y1968D01*
X977Y1968D01*
X978Y1968D01*
X979Y1968D01*
X980Y1968D01*
X981Y1968D01*
X982Y1968D01*
X983Y1968D01*
X984Y1968D01*
X985Y1968D01*
X986Y1968D01*
X987Y1968D01*
X988Y1968D01*
X989Y1968D01*
X990Y1968D01*
X991Y1968D01*
X992Y1968D01*
X993Y1968D01*
X994Y1968D01*
X995Y1968D01*
X996Y1968D01*
X997Y1968D01*
X998Y1968D01*
X999Y1968D01*
X1000Y1968D01*
X1001Y1968D01*
X1002Y1968D01*
X1003Y1968D01*
X1004Y1968D01*
X1005Y1968D01*
X1006Y1968D01*
X1007Y1968D01*
X1008Y1968D01*
X1009Y1968D01*
X1010Y1968D01*
X1011Y1968D01*
X1012Y1968D01*
X1013Y1968D01*
X1014Y1968D01*
X1015Y1968D01*
X1016Y1968D01*
X1017Y1968D01*
X1018Y1968D01*
X1019Y1968D01*
X1020Y1968D01*
X1021Y1968D01*
X1022Y1968D01*
X1023Y1968D01*
X1024Y1968D01*
X1025Y1968D01*
X1026Y1968D01*
X1027Y1968D01*
X1028Y1968D01*
X1029Y1968D01*
X1030Y1968D01*
X1031Y1968D01*
X1032Y1968D01*
X1033Y1968D01*
X1034Y1968D01*
X1035Y1968D01*
X1036Y1968D01*
X1037Y1968D01*
X1038Y1968D01*
X1039Y1968D01*
X1040Y1968D01*
X1041Y1968D01*
X1042Y1968D01*
X1043Y1968D01*
X1044Y1968D01*
X1045Y1968D01*
X1046Y1968D01*
X1047Y1968D01*
X1048Y1968D01*
X1049Y1968D01*
X1050Y1968D01*
X1051Y1968D01*
X1052Y1968D01*
X1053Y1968D01*
X1054Y1968D01*
X1055Y1968D01*
X1056Y1968D01*
X1057Y1968D01*
X1058Y1968D01*
X1059Y1968D01*
X1060Y1968D01*
X1061Y1968D01*
X1062Y1968D01*
X1063Y1968D01*
X1064Y1968D01*
X1065Y1968D01*
X1066Y1968D01*
X1067Y1968D01*
X1068Y1968D01*
X1069Y1968D01*
X1070Y1968D01*
X1071Y1968D01*
X1072Y1968D01*
X1073Y1968D01*
X1074Y1968D01*
X1075Y1968D01*
X1076Y1968D01*
X1077Y1968D01*
X1078Y1968D01*
X1079Y1968D01*
X1080Y1968D01*
X1081Y1968D01*
X1082Y1968D01*
X1083Y1968D01*
X1084Y1968D01*
X1085Y1968D01*
X1086Y1968D01*
X1087Y1968D01*
X1088Y1968D01*
X1089Y1968D01*
X1090Y1968D01*
X1091Y1968D01*
X1092Y1968D01*
X1093Y1968D01*
X1094Y1968D01*
X1095Y1968D01*
X1096Y1968D01*
X1097Y1968D01*
X1098Y1968D01*
X1099Y1968D01*
X1100Y1968D01*
X1101Y1968D01*
X1102Y1968D01*
X1103Y1968D01*
X1104Y1968D01*
X1105Y1968D01*
X1106Y1968D01*
X1107Y1968D01*
X1108Y1968D01*
X1109Y1968D01*
X1110Y1968D01*
X1111Y1968D01*
X1112Y1968D01*
X1113Y1968D01*
X1114Y1968D01*
X1115Y1968D01*
X1116Y1968D01*
X1117Y1968D01*
X1118Y1968D01*
X1119Y1968D01*
X1120Y1968D01*
X1121Y1968D01*
X1122Y1968D01*
X1123Y1968D01*
X1124Y1968D01*
X1125Y1968D01*
X1126Y1968D01*
X1127Y1968D01*
X1128Y1968D01*
X1129Y1968D01*
X1130Y1968D01*
X1131Y1968D01*
X1132Y1968D01*
X1133Y1968D01*
X1134Y1968D01*
X1135Y1968D01*
X1136Y1968D01*
X1137Y1968D01*
X1138Y1968D01*
X1139Y1968D01*
X1140Y1968D01*
X1141Y1968D01*
X1142Y1968D01*
X1143Y1968D01*
X1144Y1968D01*
X1145Y1968D01*
X1146Y1968D01*
X1147Y1968D01*
X1148Y1968D01*
X1149Y1968D01*
X1150Y1968D01*
X1151Y1968D01*
X1152Y1968D01*
X1153Y1968D01*
X1154Y1968D01*
X1155Y1968D01*
X1156Y1968D01*
X1157Y1968D01*
X1158Y1968D01*
X1159Y1968D01*
X1160Y1968D01*
X1161Y1968D01*
X1162Y1968D01*
X1163Y1968D01*
X1164Y1968D01*
X1165Y1968D01*
X1166Y1968D01*
X1167Y1968D01*
X1168Y1968D01*
X1169Y1968D01*
X1170Y1968D01*
X1171Y1968D01*
X1172Y1968D01*
X1173Y1968D01*
X1174Y1968D01*
X1175Y1968D01*
X1176Y1968D01*
X1177Y1968D01*
X1178Y1968D01*
X1179Y1968D01*
X1180Y1968D01*
X1181Y1968D01*
X1182Y1968D01*
X1183Y1968D01*
X1184Y1968D01*
X1185Y1968D01*
X1186Y1968D01*
X1187Y1968D01*
X1188Y1968D01*
X1189Y1968D01*
X1190Y1968D01*
X1191Y1968D01*
X1192Y1968D01*
X1193Y1968D01*
X1194Y1968D01*
X1195Y1968D01*
X1196Y1968D01*
X1197Y1968D01*
X1198Y1968D01*
X1199Y1968D01*
X1200Y1968D01*
X1201Y1968D01*
X1202Y1968D01*
X1203Y1968D01*
X1204Y1968D01*
X1205Y1968D01*
X1206Y1968D01*
X1207Y1968D01*
X1208Y1968D01*
X1209Y1968D01*
X1210Y1968D01*
X1211Y1968D01*
X1212Y1968D01*
X1213Y1968D01*
X1214Y1968D01*
X1215Y1968D01*
X1216Y1968D01*
X1217Y1968D01*
X1218Y1968D01*
X1219Y1968D01*
X1220Y1968D01*
X1221Y1968D01*
X1222Y1968D01*
X1223Y1968D01*
X1224Y1968D01*
X1225Y1968D01*
X1226Y1968D01*
X1227Y1968D01*
X1228Y1968D01*
X1229Y1968D01*
X1230Y1968D01*
X1231Y1968D01*
X1232Y1968D01*
X1233Y1968D01*
X1234Y1968D01*
X1235Y1968D01*
X1236Y1968D01*
X1237Y1968D01*
X1238Y1968D01*
X1239Y1968D01*
X1240Y1968D01*
X1241Y1968D01*
X1242Y1968D01*
X1243Y1968D01*
X1244Y1968D01*
X1245Y1968D01*
X1246Y1968D01*
X1247Y1968D01*
X1248Y1968D01*
X1249Y1968D01*
X1250Y1968D01*
X1251Y1968D01*
X1252Y1968D01*
X1253Y1968D01*
X1254Y1968D01*
X1255Y1968D01*
X1256Y1968D01*
X1257Y1968D01*
X1258Y1968D01*
X1259Y1968D01*
X1260Y1968D01*
X1261Y1968D01*
X1262Y1968D01*
X1263Y1968D01*
X1264Y1968D01*
X1265Y1968D01*
X1266Y1968D01*
X1267Y1968D01*
X1268Y1968D01*
X1269Y1968D01*
X1270Y1968D01*
X1271Y1968D01*
X1272Y1968D01*
X1273Y1968D01*
X1274Y1968D01*
X1275Y1968D01*
X1276Y1968D01*
X1277Y1968D01*
X1278Y1968D01*
X1279Y1968D01*
X1280Y1968D01*
X1281Y1968D01*
X1282Y1968D01*
X1283Y1968D01*
X1284Y1968D01*
X1285Y1968D01*
X1286Y1968D01*
X1287Y1968D01*
X1288Y1968D01*
X1289Y1968D01*
X1290Y1968D01*
X1291Y1968D01*
X1292Y1968D01*
X1293Y1968D01*
X1294Y1968D01*
X1295Y1968D01*
X1296Y1968D01*
X1297Y1968D01*
X1298Y1968D01*
X1299Y1968D01*
X1300Y1968D01*
X1301Y1968D01*
X1302Y1968D01*
X1303Y1968D01*
X1304Y1968D01*
X1305Y1968D01*
X1306Y1968D01*
X1307Y1968D01*
X1308Y1968D01*
X1309Y1968D01*
X1310Y1968D01*
X1311Y1968D01*
X1312Y1968D01*
X1313Y1968D01*
X1314Y1968D01*
X1315Y1968D01*
X1316Y1968D01*
X1317Y1968D01*
X1318Y1968D01*
X1319Y1968D01*
X1320Y1968D01*
X1321Y1968D01*
X1322Y1968D01*
X1323Y1968D01*
X1324Y1968D01*
X1325Y1968D01*
X1326Y1968D01*
X1327Y1968D01*
X1328Y1968D01*
X1329Y1968D01*
X1330Y1968D01*
X1331Y1968D01*
X1332Y1968D01*
X1333Y1968D01*
X1334Y1968D01*
X1335Y1968D01*
X1336Y1968D01*
X1337Y1968D01*
X1338Y1968D01*
X1339Y1968D01*
X1340Y1968D01*
X1341Y1968D01*
X1342Y1968D01*
X1343Y1968D01*
X1344Y1968D01*
X1345Y1968D01*
X1346Y1968D01*
X1347Y1968D01*
X1348Y1968D01*
X1349Y1968D01*
X1350Y1968D01*
X1351Y1968D01*
X1352Y1968D01*
X1353Y1968D01*
X1354Y1968D01*
X1355Y1968D01*
X1356Y1968D01*
X1357Y1968D01*
X1358Y1968D01*
X1359Y1968D01*
X1360Y1968D01*
X1361Y1968D01*
X1362Y1968D01*
X1363Y1968D01*
X1364Y1968D01*
X1365Y1968D01*
X1366Y1968D01*
X1367Y1968D01*
X1368Y1968D01*
X1369Y1968D01*
X1370Y1968D01*
X1371Y1968D01*
X1372Y1968D01*
X1373Y1968D01*
X1374Y1968D01*
X1375Y1968D01*
X1376Y1968D01*
X1377Y1968D01*
X1378Y1968D01*
X1379Y1968D01*
X1380Y1968D01*
X1381Y1968D01*
X1382Y1968D01*
X1383Y1968D01*
X1384Y1968D01*
X1385Y1968D01*
X1386Y1968D01*
X1387Y1968D01*
X1388Y1968D01*
X1389Y1968D01*
X1390Y1968D01*
X1391Y1968D01*
X1392Y1968D01*
X1393Y1968D01*
X1394Y1968D01*
X1395Y1968D01*
X1396Y1968D01*
X1397Y1968D01*
X1398Y1968D01*
X1399Y1968D01*
X1400Y1968D01*
X1401Y1968D01*
X1402Y1968D01*
X1403Y1968D01*
X1404Y1968D01*
X1405Y1968D01*
X1406Y1968D01*
X1407Y1968D01*
X1408Y1968D01*
X1409Y1968D01*
X1410Y1968D01*
X1411Y1968D01*
X1412Y1968D01*
X1413Y1968D01*
X1414Y1968D01*
X1415Y1968D01*
X1416Y1968D01*
X1417Y1968D01*
X1418Y1968D01*
X1419Y1968D01*
X1420Y1968D01*
X1421Y1968D01*
X1422Y1968D01*
X1423Y1968D01*
X1424Y1968D01*
X1425Y1968D01*
X1426Y1968D01*
X1427Y1968D01*
X1428Y1968D01*
X1429Y1968D01*
X1430Y1968D01*
X1431Y1968D01*
X1432Y1968D01*
X1433Y1968D01*
X1434Y1968D01*
X1435Y1968D01*
X1436Y1968D01*
X1437Y1968D01*
X1438Y1968D01*
X1439Y1968D01*
X1440Y1968D01*
X1441Y1968D01*
X1442Y1968D01*
X1443Y1968D01*
X1444Y1968D01*
X1445Y1968D01*
X1446Y1968D01*
X1447Y1968D01*
X1448Y1968D01*
X1449Y1968D01*
X1450Y1968D01*
X1451Y1968D01*
X1452Y1968D01*
X1453Y1968D01*
X1454Y1968D01*
X1455Y1968D01*
X1456Y1968D01*
X1457Y1968D01*
X1458Y1968D01*
X1459Y1968D01*
X1460Y1968D01*
X1461Y1968D01*
X1462Y1968D01*
X1463Y1968D01*
X1464Y1968D01*
X1465Y1968D01*
X1466Y1968D01*
X1467Y1968D01*
X1468Y1968D01*
X1469Y1968D01*
X1470Y1968D01*
X1471Y1968D01*
X1472Y1968D01*
X1473Y1968D01*
X1474Y1968D01*
X1475Y1968D01*
X1476Y1968D01*
X1477Y1968D01*
X1478Y1968D01*
X1479Y1968D01*
X1480Y1968D01*
X1481Y1968D01*
X1482Y1968D01*
X1483Y1968D01*
X1484Y1968D01*
X1485Y1968D01*
X1486Y1968D01*
X1487Y1968D01*
X1488Y1968D01*
X1489Y1968D01*
X1490Y1968D01*
X1491Y1968D01*
X1492Y1968D01*
X1493Y1968D01*
X1494Y1968D01*
X1495Y1968D01*
X1496Y1968D01*
X1497Y1968D01*
X1498Y1968D01*
X1499Y1968D01*
X1500Y1968D01*
X1501Y1968D01*
X1502Y1968D01*
X1503Y1968D01*
X1504Y1968D01*
X1505Y1968D01*
X1506Y1968D01*
X1507Y1968D01*
X1508Y1968D01*
X1509Y1968D01*
X1510Y1968D01*
X1511Y1968D01*
X1512Y1968D01*
X1513Y1968D01*
X1514Y1968D01*
X1515Y1968D01*
X1516Y1968D01*
X1517Y1968D01*
X1518Y1968D01*
X1519Y1968D01*
X1520Y1968D01*
X1521Y1968D01*
X1522Y1968D01*
X1523Y1968D01*
X1524Y1968D01*
X1525Y1968D01*
X1526Y1968D01*
X1527Y1968D01*
X1528Y1968D01*
X1529Y1968D01*
X1530Y1968D01*
X1531Y1968D01*
X1532Y1968D01*
X1533Y1968D01*
X1534Y1968D01*
X1535Y1968D01*
X1536Y1968D01*
X1537Y1968D01*
X1538Y1968D01*
X1539Y1968D01*
X1540Y1968D01*
X1541Y1968D01*
X1542Y1968D01*
X1543Y1968D01*
X1544Y1968D01*
X1545Y1968D01*
X1546Y1968D01*
X1547Y1968D01*
X1548Y1968D01*
X1549Y1968D01*
X1550Y1968D01*
X1551Y1968D01*
X1552Y1968D01*
X1553Y1968D01*
X1554Y1968D01*
X1555Y1968D01*
X1556Y1968D01*
X1557Y1968D01*
X1558Y1968D01*
X1559Y1968D01*
X1560Y1968D01*
X1561Y1968D01*
X1562Y1968D01*
X1563Y1968D01*
X1564Y1968D01*
X1565Y1968D01*
X1566Y1968D01*
X1567Y1968D01*
X1568Y1968D01*
X1569Y1968D01*
X1570Y1968D01*
X1571Y1968D01*
X1572Y1968D01*
X1573Y1968D01*
X1574Y1968D01*
X1575Y1968D01*
X1576Y1968D01*
X1577Y1968D01*
X1578Y1968D01*
X1579Y1968D01*
X1580Y1968D01*
X1581Y1968D01*
X1582Y1968D01*
X1583Y1968D01*
X1584Y1968D01*
X1585Y1968D01*
X1586Y1968D01*
X1587Y1968D01*
X1588Y1968D01*
X1589Y1968D01*
X1590Y1968D01*
X1591Y1968D01*
X1592Y1968D01*
X1593Y1968D01*
X1594Y1968D01*
X1595Y1968D01*
X1596Y1968D01*
X1597Y1968D01*
X1598Y1968D01*
X1599Y1968D01*
X1600Y1968D01*
X1601Y1968D01*
X1602Y1968D01*
X1603Y1968D01*
X1604Y1968D01*
X1605Y1968D01*
X1606Y1968D01*
X1607Y1968D01*
X1608Y1968D01*
X1609Y1968D01*
X1610Y1968D01*
X1611Y1968D01*
X1612Y1968D01*
X1613Y1968D01*
X1614Y1968D01*
X1615Y1968D01*
X1616Y1968D01*
X1617Y1968D01*
X1618Y1968D01*
X1619Y1968D01*
X1620Y1968D01*
X1621Y1968D01*
X1622Y1968D01*
X1623Y1968D01*
X1624Y1968D01*
X1625Y1968D01*
X1626Y1968D01*
X1627Y1968D01*
X1628Y1968D01*
X1629Y1968D01*
X1630Y1968D01*
X1631Y1968D01*
X1632Y1968D01*
X1633Y1968D01*
X1634Y1968D01*
X1635Y1968D01*
X1636Y1968D01*
X1637Y1968D01*
X1638Y1968D01*
X1639Y1968D01*
X1640Y1968D01*
X1641Y1968D01*
X1642Y1968D01*
X1643Y1968D01*
X1644Y1968D01*
X1645Y1968D01*
X1646Y1968D01*
X1647Y1968D01*
X1648Y1968D01*
X1649Y1968D01*
X1650Y1968D01*
X1651Y1968D01*
X1652Y1968D01*
X1653Y1968D01*
X1654Y1968D01*
X1655Y1968D01*
X1656Y1968D01*
X1657Y1968D01*
X1658Y1968D01*
X1659Y1968D01*
X1660Y1968D01*
X1661Y1968D01*
X1662Y1968D01*
X1663Y1968D01*
X1664Y1968D01*
X1665Y1968D01*
X1666Y1968D01*
X1667Y1968D01*
X1668Y1968D01*
X1669Y1968D01*
X1670Y1968D01*
X1671Y1968D01*
X1672Y1968D01*
X1673Y1968D01*
X1674Y1968D01*
X1675Y1968D01*
X1676Y1968D01*
X1677Y1968D01*
X1678Y1968D01*
X1679Y1968D01*
X1680Y1968D01*
X1681Y1968D01*
X1682Y1968D01*
X1683Y1968D01*
X1684Y1968D01*
X1685Y1968D01*
X1686Y1968D01*
X1687Y1968D01*
X1688Y1968D01*
X1689Y1968D01*
X1690Y1968D01*
X1691Y1968D01*
X1692Y1968D01*
X1693Y1968D01*
X1694Y1968D01*
X1695Y1968D01*
X1696Y1968D01*
X1697Y1968D01*
X1698Y1968D01*
X1699Y1968D01*
X1700Y1968D01*
X1701Y1968D01*
X1702Y1968D01*
X1703Y1968D01*
X1704Y1968D01*
X1705Y1968D01*
X1706Y1968D01*
X1707Y1968D01*
X1708Y1968D01*
X1709Y1968D01*
X1710Y1968D01*
X1711Y1968D01*
X1712Y1968D01*
X1713Y1968D01*
X1714Y1968D01*
X1715Y1968D01*
X1716Y1968D01*
X1717Y1968D01*
X1718Y1968D01*
X1719Y1968D01*
X1720Y1968D01*
X1721Y1968D01*
X1722Y1968D01*
X1723Y1968D01*
X1724Y1968D01*
X1725Y1968D01*
X1726Y1968D01*
X1727Y1968D01*
X1728Y1968D01*
X1729Y1968D01*
X1730Y1968D01*
X1731Y1968D01*
X1732Y1968D01*
X1733Y1968D01*
X1734Y1968D01*
X1735Y1968D01*
X1736Y1968D01*
X1737Y1968D01*
X1738Y1968D01*
X1739Y1968D01*
X1740Y1968D01*
X1741Y1968D01*
X1742Y1968D01*
X1743Y1968D01*
X1744Y1968D01*
X1745Y1968D01*
X1746Y1968D01*
X1747Y1968D01*
X1748Y1968D01*
X1749Y1968D01*
X1750Y1968D01*
X1751Y1968D01*
X1752Y1968D01*
X1753Y1968D01*
X1754Y1968D01*
X1755Y1968D01*
X1756Y1968D01*
X1757Y1968D01*
X1758Y1968D01*
X1759Y1968D01*
X1760Y1968D01*
X1761Y1968D01*
X1762Y1968D01*
X1763Y1968D01*
X1764Y1968D01*
X1765Y1968D01*
X1766Y1968D01*
X1767Y1968D01*
X1768Y1968D01*
X1769Y1968D01*
X1770Y1968D01*
X1771Y1968D01*
X1772Y1968D01*
X1773Y1968D01*
X1774Y1968D01*
X1775Y1968D01*
X1776Y1968D01*
X1777Y1968D01*
X1778Y1968D01*
X1779Y1968D01*
X1780Y1968D01*
X1781Y1968D01*
X1782Y1968D01*
X1783Y1968D01*
X1784Y1968D01*
X1785Y1968D01*
X1786Y1968D01*
X1787Y1968D01*
X1788Y1968D01*
X1789Y1968D01*
X1790Y1968D01*
X1791Y1968D01*
X1792Y1968D01*
X1793Y1968D01*
X1794Y1968D01*
X1795Y1968D01*
X1796Y1968D01*
X1797Y1968D01*
X1798Y1968D01*
X1799Y1968D01*
X1800Y1968D01*
X1801Y1968D01*
X1802Y1968D01*
X1803Y1968D01*
X1804Y1968D01*
X1805Y1968D01*
X1806Y1968D01*
X1807Y1968D01*
X1808Y1968D01*
X1809Y1968D01*
X1810Y1968D01*
X1811Y1968D01*
X1812Y1968D01*
X1813Y1968D01*
X1814Y1968D01*
X1815Y1968D01*
X1816Y1968D01*
X1817Y1968D01*
X1818Y1968D01*
X1819Y1968D01*
X1820Y1968D01*
X1821Y1968D01*
X1822Y1968D01*
X1823Y1968D01*
X1824Y1968D01*
X1825Y1968D01*
X1826Y1968D01*
X1827Y1968D01*
X1828Y1968D01*
X1829Y1968D01*
X1830Y1968D01*
X1831Y1968D01*
X1832Y1968D01*
X1833Y1968D01*
X1834Y1968D01*
X1835Y1968D01*
X1836Y1968D01*
X1837Y1968D01*
X1838Y1968D01*
X1839Y1968D01*
X1840Y1968D01*
X1841Y1968D01*
X1842Y1968D01*
X1843Y1968D01*
X1844Y1968D01*
X1845Y1968D01*
X1846Y1968D01*
X1847Y1968D01*
X1848Y1968D01*
X1849Y1968D01*
X1850Y1968D01*
X1851Y1968D01*
X1852Y1968D01*
X1853Y1968D01*
X1854Y1968D01*
X1855Y1968D01*
X1856Y1968D01*
X1857Y1968D01*
X1858Y1968D01*
X1859Y1968D01*
X1860Y1968D01*
X1861Y1968D01*
X1862Y1968D01*
X1863Y1968D01*
X1864Y1967D01*
X1865Y1967D01*
X1866Y1967D01*
X1867Y1967D01*
X1868Y1967D01*
X1869Y1967D01*
X1870Y1966D01*
X1871Y1966D01*
X1872Y1966D01*
X1873Y1966D01*
X1874Y1966D01*
X1875Y1965D01*
X1876Y1965D01*
X1877Y1965D01*
X1878Y1965D01*
X1879Y1965D01*
X1880Y1964D01*
X1881Y1964D01*
X1882Y1964D01*
X1883Y1963D01*
X1884Y1963D01*
X1885Y1963D01*
X1886Y1962D01*
X1887Y1962D01*
X1888Y1962D01*
X1889Y1961D01*
X1890Y1961D01*
X1891Y1961D01*
X1892Y1960D01*
X1893Y1960D01*
X1894Y1959D01*
X1895Y1959D01*
X1896Y1959D01*
X1897Y1958D01*
X1898Y1958D01*
X1899Y1957D01*
X1900Y1957D01*
X1901Y1956D01*
X1902Y1956D01*
X1903Y1955D01*
X1904Y1955D01*
X1905Y1954D01*
X1906Y1954D01*
X1907Y1953D01*
X1908Y1953D01*
X1909Y1952D01*
X1910Y1951D01*
X1911Y1951D01*
X1912Y1950D01*
X1913Y1949D01*
X1914Y1949D01*
X1915Y1948D01*
X1916Y1947D01*
X1917Y1947D01*
X1918Y1946D01*
X1919Y1945D01*
X1920Y1945D01*
X1921Y1944D01*
X1922Y1943D01*
X1923Y1942D01*
X1924Y1941D01*
X1925Y1941D01*
X1926Y1940D01*
X1927Y1939D01*
X1928Y1938D01*
X1929Y1937D01*
X1930Y1936D01*
X1931Y1935D01*
X1932Y1934D01*
X1933Y1933D01*
X1934Y1932D01*
X1935Y1931D01*
X1936Y1930D01*
X1937Y1929D01*
X1938Y1928D01*
X1939Y1927D01*
X1939Y1926D01*
X1940Y1925D01*
X1941Y1924D01*
X1942Y1923D01*
X1943Y1922D01*
X1943Y1921D01*
X1944Y1920D01*
X1945Y1919D01*
X1945Y1918D01*
X1946Y1917D01*
X1947Y1916D01*
X1947Y1915D01*
X1948Y1914D01*
X1949Y1913D01*
X1949Y1912D01*
X1950Y1911D01*
X1951Y1910D01*
X1951Y1909D01*
X1952Y1908D01*
X1952Y1907D01*
X1953Y1906D01*
X1953Y1905D01*
X1954Y1904D01*
X1954Y1903D01*
X1955Y1902D01*
X1955Y1901D01*
X1956Y1900D01*
X1956Y1899D01*
X1957Y1898D01*
X1957Y1896D01*
X1958Y1895D01*
X1958Y1894D01*
X1959Y1893D01*
X1959Y1891D01*
X1960Y1890D01*
X1960Y1888D01*
X1961Y1887D01*
X1961Y1885D01*
X1962Y1884D01*
X1962Y1882D01*
X1963Y1881D01*
X1963Y1877D01*
X1964Y1876D01*
X1964Y1872D01*
X1965Y1871D01*
X1965Y1866D01*
X1966Y1865D01*
X1966Y1144D01*
X1965Y1143D01*
X1965Y1137D01*
X1964Y1136D01*
X1964Y1132D01*
X1963Y1131D01*
X1963Y1128D01*
X1962Y1127D01*
X1962Y1124D01*
X1961Y1123D01*
X1961Y1121D01*
X1960Y1120D01*
X1960Y1118D01*
X1959Y1117D01*
X1959Y1116D01*
X1958Y1115D01*
X1958Y1113D01*
X1957Y1112D01*
X1957Y1111D01*
X1956Y1110D01*
X1956Y1108D01*
X1955Y1107D01*
X1955Y1106D01*
X1954Y1105D01*
X1954Y1104D01*
X1953Y1103D01*
X1953Y1102D01*
X1952Y1101D01*
X1951Y1100D01*
X1951Y1099D01*
X1950Y1098D01*
X1950Y1097D01*
X1949Y1096D01*
X1948Y1095D01*
X1948Y1094D01*
X1947Y1093D01*
X1947Y1092D01*
X1946Y1091D01*
X1945Y1090D01*
X1944Y1089D01*
X1944Y1088D01*
X1943Y1087D01*
X1942Y1086D01*
X1941Y1085D01*
X1941Y1084D01*
X1940Y1083D01*
X1939Y1082D01*
X1938Y1081D01*
X1937Y1080D01*
X1936Y1079D01*
X1936Y1078D01*
X1935Y1077D01*
X1934Y1076D01*
X1933Y1075D01*
X1932Y1074D01*
X1931Y1073D01*
X1930Y1072D01*
X1929Y1071D01*
X1928Y1070D01*
X1927Y1070D01*
X1926Y1069D01*
X1925Y1068D01*
X1924Y1067D01*
X1923Y1066D01*
X1922Y1065D01*
X1921Y1065D01*
X1920Y1064D01*
X1919Y1063D01*
X1918Y1062D01*
X1917Y1062D01*
X1916Y1061D01*
X1915Y1060D01*
X1914Y1060D01*
X1913Y1059D01*
X1912Y1058D01*
X1911Y1058D01*
X1910Y1057D01*
X1909Y1056D01*
X1908Y1056D01*
X1907Y1055D01*
X1906Y1055D01*
X1905Y1054D01*
X1904Y1054D01*
X1903Y1053D01*
X1902Y1053D01*
X1901Y1052D01*
X1900Y1052D01*
X1899Y1051D01*
X1898Y1051D01*
X1897Y1050D01*
X1896Y1050D01*
X1895Y1049D01*
X1894Y1049D01*
X1893Y1049D01*
X1892Y1048D01*
X1891Y1048D01*
X1890Y1047D01*
X1889Y1047D01*
X1888Y1047D01*
X1887Y1046D01*
X1886Y1046D01*
X1885Y1046D01*
X1884Y1045D01*
X1883Y1045D01*
X1882Y1045D01*
X1881Y1045D01*
X1880Y1044D01*
X1879Y1044D01*
X1878Y1044D01*
X1877Y1043D01*
X1876Y1043D01*
X1875Y1043D01*
X1874Y1043D01*
X1873Y1043D01*
X1872Y1042D01*
X1871Y1042D01*
X1870Y1042D01*
X1869Y1042D01*
X1868Y1042D01*
X1867Y1041D01*
X1866Y1041D01*
X1865Y1041D01*
X1864Y1041D01*
X1863Y1041D01*
X1862Y1041D01*
X1861Y1041D01*
X1860Y1041D01*
X1859Y1041D01*
X1858Y1040D01*
X1857Y1040D01*
X1856Y1040D01*
X1855Y1040D01*
X1854Y1040D01*
X1853Y1040D01*
X1852Y1040D01*
X1851Y1040D01*
X1850Y1040D01*
X1849Y1040D01*
X1848Y1040D01*
X1847Y1040D01*
X1846Y1040D01*
X1845Y1040D01*
X1844Y1040D01*
X1843Y1040D01*
X1842Y1040D01*
X1841Y1040D01*
X1840Y1040D01*
X1839Y1040D01*
X1838Y1040D01*
X1837Y1040D01*
X1836Y1040D01*
X1835Y1040D01*
X1834Y1040D01*
X1833Y1040D01*
X1832Y1040D01*
X1831Y1040D01*
X1830Y1040D01*
X1829Y1040D01*
X1828Y1040D01*
X1827Y1040D01*
X1826Y1040D01*
X1825Y1040D01*
X1824Y1040D01*
X1823Y1040D01*
X1822Y1040D01*
X1821Y1040D01*
X1820Y1040D01*
X1819Y1040D01*
X1818Y1040D01*
X1817Y1040D01*
X1816Y1040D01*
X1815Y1040D01*
X1814Y1040D01*
X1813Y1040D01*
X1812Y1040D01*
X1811Y1040D01*
X1810Y1040D01*
X1809Y1040D01*
X1808Y1040D01*
X1807Y1040D01*
X1806Y1040D01*
X1805Y1040D01*
X1804Y1040D01*
X1803Y1040D01*
X1802Y1040D01*
X1801Y1040D01*
X1800Y1040D01*
X1799Y1040D01*
X1798Y1040D01*
X1797Y1040D01*
X1796Y1040D01*
X1795Y1040D01*
X1794Y1040D01*
X1793Y1040D01*
X1792Y1040D01*
X1791Y1040D01*
X1790Y1040D01*
X1789Y1040D01*
X1788Y1040D01*
X1787Y1040D01*
X1786Y1040D01*
X1785Y1040D01*
X1784Y1040D01*
X1783Y1040D01*
X1782Y1040D01*
X1781Y1040D01*
X1780Y1040D01*
X1779Y1040D01*
X1778Y1040D01*
X1777Y1040D01*
X1776Y1040D01*
X1775Y1040D01*
X1774Y1040D01*
X1773Y1040D01*
X1772Y1040D01*
X1771Y1040D01*
X1770Y1040D01*
X1769Y1040D01*
X1768Y1040D01*
X1767Y1040D01*
X1766Y1040D01*
X1765Y1040D01*
X1764Y1040D01*
X1763Y1040D01*
X1762Y1040D01*
X1761Y1040D01*
X1760Y1040D01*
X1759Y1040D01*
X1758Y1040D01*
X1757Y1040D01*
X1756Y1040D01*
X1755Y1040D01*
X1754Y1040D01*
X1753Y1040D01*
X1752Y1040D01*
X1751Y1040D01*
X1750Y1040D01*
X1749Y1040D01*
X1748Y1040D01*
X1747Y1040D01*
X1746Y1040D01*
X1745Y1040D01*
X1744Y1040D01*
X1743Y1040D01*
X1742Y1040D01*
X1741Y1040D01*
X1740Y1040D01*
X1739Y1040D01*
X1738Y1040D01*
X1737Y1040D01*
X1736Y1040D01*
X1735Y1040D01*
X1734Y1040D01*
X1733Y1040D01*
X1732Y1040D01*
X1731Y1040D01*
X1730Y1040D01*
X1729Y1040D01*
X1728Y1040D01*
X1727Y1040D01*
X1726Y1040D01*
X1725Y1040D01*
X1724Y1040D01*
X1723Y1040D01*
X1722Y1040D01*
X1721Y1040D01*
X1720Y1040D01*
X1719Y1040D01*
X1718Y1040D01*
X1717Y1040D01*
X1716Y1040D01*
X1715Y1040D01*
X1714Y1040D01*
X1713Y1040D01*
X1712Y1040D01*
X1711Y1040D01*
X1710Y1040D01*
X1709Y1040D01*
X1708Y1040D01*
X1707Y1040D01*
X1706Y1040D01*
X1705Y1040D01*
X1704Y1040D01*
X1703Y1040D01*
X1702Y1040D01*
X1701Y1040D01*
X1700Y1040D01*
X1699Y1040D01*
X1698Y1040D01*
X1697Y1040D01*
X1696Y1040D01*
X1695Y1040D01*
X1694Y1040D01*
X1693Y1040D01*
X1692Y1040D01*
X1691Y1040D01*
X1690Y1040D01*
X1689Y1040D01*
X1688Y1040D01*
X1687Y1040D01*
X1686Y1040D01*
X1685Y1040D01*
X1684Y1040D01*
X1683Y1040D01*
X1682Y1040D01*
X1681Y1040D01*
X1680Y1040D01*
X1679Y1040D01*
X1678Y1040D01*
X1677Y1040D01*
X1676Y1040D01*
X1675Y1040D01*
X1674Y1040D01*
X1673Y1040D01*
X1672Y1040D01*
X1671Y1040D01*
X1670Y1040D01*
X1669Y1040D01*
X1668Y1040D01*
X1667Y1040D01*
X1666Y1040D01*
X1665Y1040D01*
X1664Y1040D01*
X1663Y1040D01*
X1662Y1040D01*
X1661Y1040D01*
X1660Y1040D01*
X1659Y1040D01*
X1658Y1040D01*
X1657Y1040D01*
X1656Y1040D01*
X1655Y1040D01*
X1654Y1040D01*
X1653Y1040D01*
X1652Y1040D01*
X1651Y1040D01*
X1650Y1040D01*
X1649Y1040D01*
X1648Y1040D01*
X1647Y1040D01*
X1646Y1040D01*
X1645Y1040D01*
X1644Y1040D01*
X1643Y1040D01*
X1642Y1040D01*
X1641Y1040D01*
X1640Y1040D01*
X1639Y1040D01*
X1638Y1040D01*
X1637Y1040D01*
X1636Y1040D01*
X1635Y1040D01*
X1634Y1040D01*
X1633Y1040D01*
X1632Y1040D01*
X1631Y1040D01*
X1630Y1040D01*
X1629Y1040D01*
X1628Y1040D01*
X1627Y1040D01*
X1626Y1040D01*
X1625Y1040D01*
X1624Y1040D01*
X1623Y1040D01*
X1622Y1040D01*
X1621Y1040D01*
X1620Y1040D01*
X1619Y1040D01*
X1618Y1040D01*
X1617Y1040D01*
X1616Y1040D01*
X1615Y1040D01*
X1614Y1040D01*
X1613Y1040D01*
X1612Y1040D01*
X1611Y1040D01*
X1610Y1040D01*
X1609Y1040D01*
X1608Y1040D01*
X1607Y1040D01*
X1606Y1040D01*
X1605Y1040D01*
X1604Y1040D01*
X1603Y1040D01*
X1602Y1040D01*
X1601Y1040D01*
X1600Y1040D01*
X1599Y1040D01*
X1598Y1040D01*
X1597Y1040D01*
X1596Y1040D01*
X1595Y1040D01*
X1594Y1040D01*
X1593Y1040D01*
X1592Y1040D01*
X1591Y1040D01*
X1590Y1040D01*
X1589Y1040D01*
X1588Y1040D01*
X1587Y1040D01*
X1586Y1040D01*
X1585Y1040D01*
X1584Y1040D01*
X1583Y1040D01*
X1582Y1040D01*
X1581Y1040D01*
X1580Y1040D01*
X1579Y1040D01*
X1578Y1040D01*
X1577Y1040D01*
X1576Y1040D01*
X1575Y1040D01*
X1574Y1040D01*
X1573Y1040D01*
X1572Y1040D01*
X1571Y1040D01*
X1570Y1040D01*
X1569Y1040D01*
X1568Y1040D01*
X1567Y1040D01*
X1566Y1040D01*
X1565Y1040D01*
X1564Y1040D01*
X1563Y1040D01*
X1562Y1040D01*
X1561Y1040D01*
X1560Y1040D01*
X1559Y1040D01*
X1558Y1040D01*
X1557Y1040D01*
X1556Y1040D01*
X1555Y1040D01*
X1554Y1040D01*
X1553Y1040D01*
X1552Y1040D01*
X1551Y1040D01*
X1550Y1040D01*
X1549Y1040D01*
X1548Y1040D01*
X1547Y1040D01*
X1546Y1040D01*
X1545Y1040D01*
X1544Y1040D01*
X1543Y1040D01*
X1542Y1040D01*
X1541Y1040D01*
X1540Y1040D01*
X1539Y1040D01*
X1538Y1040D01*
X1537Y1040D01*
X1536Y1040D01*
X1535Y1040D01*
X1534Y1040D01*
X1533Y1040D01*
X1532Y1040D01*
X1531Y1040D01*
X1530Y1040D01*
X1529Y1040D01*
X1528Y1040D01*
X1527Y1040D01*
X1526Y1040D01*
X1525Y1040D01*
X1524Y1040D01*
X1523Y1040D01*
X1522Y1040D01*
X1521Y1040D01*
X1520Y1040D01*
X1519Y1040D01*
X1518Y1040D01*
X1517Y1040D01*
X1516Y1040D01*
X1515Y1040D01*
X1514Y1040D01*
X1513Y1040D01*
X1512Y1040D01*
X1511Y1040D01*
X1510Y1040D01*
X1509Y1040D01*
X1508Y1040D01*
X1507Y1040D01*
X1506Y1040D01*
X1505Y1040D01*
X1504Y1040D01*
X1503Y1040D01*
X1502Y1040D01*
X1501Y1040D01*
X1500Y1040D01*
X1499Y1040D01*
X1498Y1040D01*
X1497Y1040D01*
X1496Y1040D01*
X1495Y1040D01*
X1494Y1040D01*
X1493Y1040D01*
X1492Y1040D01*
X1491Y1040D01*
X1490Y1040D01*
X1489Y1040D01*
X1488Y1040D01*
X1487Y1040D01*
X1486Y1040D01*
X1485Y1040D01*
X1484Y1040D01*
X1483Y1040D01*
X1482Y1040D01*
X1481Y1040D01*
X1480Y1040D01*
X1479Y1040D01*
X1478Y1040D01*
X1477Y1040D01*
X1476Y1040D01*
X1475Y1040D01*
X1474Y1040D01*
X1473Y1040D01*
X1472Y1040D01*
X1471Y1040D01*
X1470Y1040D01*
X1469Y1040D01*
X1468Y1040D01*
X1467Y1040D01*
X1466Y1040D01*
X1465Y1040D01*
X1464Y1040D01*
X1463Y1040D01*
X1462Y1040D01*
X1461Y1040D01*
X1460Y1040D01*
X1459Y1040D01*
X1458Y1040D01*
X1457Y1040D01*
X1456Y1040D01*
X1455Y1040D01*
X1454Y1040D01*
X1453Y1040D01*
X1452Y1040D01*
X1451Y1040D01*
X1450Y1040D01*
X1449Y1040D01*
X1448Y1040D01*
X1447Y1040D01*
X1446Y1040D01*
X1445Y1040D01*
X1444Y1040D01*
X1443Y1040D01*
X1442Y1040D01*
X1441Y1040D01*
X1440Y1040D01*
X1439Y1040D01*
X1438Y1040D01*
X1437Y1040D01*
X1436Y1040D01*
X1435Y1040D01*
X1434Y1040D01*
X1433Y1040D01*
X1432Y1040D01*
X1431Y1040D01*
X1430Y1040D01*
X1429Y1040D01*
X1428Y1040D01*
X1427Y1040D01*
X1426Y1040D01*
X1425Y1040D01*
X1424Y1040D01*
X1423Y1040D01*
X1422Y1040D01*
X1421Y1040D01*
X1420Y1040D01*
X1419Y1040D01*
X1418Y1040D01*
X1417Y1040D01*
X1416Y1040D01*
X1415Y1040D01*
X1414Y1040D01*
X1413Y1040D01*
X1412Y1040D01*
X1411Y1040D01*
X1410Y1040D01*
X1409Y1040D01*
X1408Y1040D01*
X1407Y1040D01*
X1406Y1040D01*
X1405Y1040D01*
X1404Y1040D01*
X1403Y1040D01*
X1402Y1040D01*
X1401Y1040D01*
X1400Y1040D01*
X1399Y1040D01*
X1398Y1040D01*
X1397Y1040D01*
X1396Y1040D01*
X1395Y1040D01*
X1394Y1040D01*
X1393Y1040D01*
X1392Y1040D01*
X1391Y1040D01*
X1390Y1040D01*
X1389Y1040D01*
X1388Y1040D01*
X1387Y1040D01*
X1386Y1040D01*
X1385Y1040D01*
X1384Y1040D01*
X1383Y1040D01*
X1382Y1040D01*
X1381Y1040D01*
X1380Y1040D01*
X1379Y1040D01*
X1378Y1040D01*
X1377Y1040D01*
X1376Y1040D01*
X1375Y1040D01*
X1374Y1040D01*
X1373Y1040D01*
X1372Y1040D01*
X1371Y1040D01*
X1370Y1040D01*
X1369Y1040D01*
X1368Y1039D01*
X1367Y1039D01*
X1366Y1039D01*
X1365Y1039D01*
X1364Y1039D01*
X1363Y1038D01*
X1362Y1038D01*
X1361Y1038D01*
X1360Y1037D01*
X1359Y1037D01*
X1358Y1036D01*
X1357Y1036D01*
X1356Y1036D01*
X1355Y1035D01*
X1354Y1034D01*
X1353Y1034D01*
X1352Y1033D01*
X1351Y1032D01*
X1350Y1032D01*
X1349Y1031D01*
X1348Y1030D01*
X1347Y1029D01*
X1346Y1028D01*
X1345Y1027D01*
X1344Y1026D01*
X1343Y1025D01*
X1342Y1024D01*
X1341Y1023D01*
X1341Y1022D01*
X1340Y1021D01*
X1339Y1020D01*
X1339Y1019D01*
X1338Y1018D01*
X1338Y1017D01*
X1337Y1016D01*
X1337Y1015D01*
X1336Y1014D01*
X1336Y1013D01*
X1335Y1012D01*
X1335Y1010D01*
X1334Y1009D01*
X1334Y1007D01*
X1333Y1006D01*
X1333Y991D01*
X1334Y990D01*
X1334Y987D01*
X1335Y986D01*
X1335Y985D01*
X1336Y984D01*
X1336Y983D01*
X1337Y982D01*
X1337Y981D01*
X1338Y980D01*
X1338Y979D01*
X1339Y978D01*
X1339Y977D01*
X1340Y976D01*
X1341Y975D01*
X1342Y974D01*
X1342Y973D01*
X1343Y972D01*
X1344Y971D01*
X1345Y970D01*
X1346Y969D01*
X1347Y968D01*
X1348Y968D01*
X1349Y967D01*
X1350Y966D01*
X1351Y965D01*
X1352Y965D01*
X1353Y964D01*
X1354Y964D01*
X1355Y963D01*
X1356Y963D01*
X1357Y962D01*
X1358Y962D01*
X1359Y961D01*
X1360Y961D01*
X1361Y961D01*
X1362Y960D01*
X1363Y960D01*
X1364Y960D01*
X1365Y960D01*
X1366Y959D01*
X1367Y959D01*
X1368Y959D01*
X1369Y959D01*
X1370Y959D01*
X1371Y959D01*
X1372Y959D01*
X1373Y959D01*
X1374Y959D01*
X1375Y959D01*
X1376Y959D01*
X1377Y959D01*
X1378Y959D01*
X1379Y959D01*
X1380Y959D01*
X1381Y959D01*
X1382Y959D01*
X1383Y959D01*
X1384Y959D01*
X1385Y959D01*
X1386Y959D01*
X1387Y959D01*
X1388Y959D01*
X1389Y959D01*
X1390Y959D01*
X1391Y959D01*
X1392Y959D01*
X1393Y959D01*
X1394Y959D01*
X1395Y959D01*
X1396Y959D01*
X1397Y959D01*
X1398Y959D01*
X1399Y959D01*
X1400Y959D01*
X1401Y959D01*
X1402Y959D01*
X1403Y959D01*
X1404Y959D01*
X1405Y959D01*
X1406Y959D01*
X1407Y959D01*
X1408Y959D01*
X1409Y959D01*
X1410Y959D01*
X1411Y959D01*
X1412Y959D01*
X1413Y959D01*
X1414Y959D01*
X1415Y959D01*
X1416Y959D01*
X1417Y959D01*
X1418Y959D01*
X1419Y959D01*
X1420Y959D01*
X1421Y959D01*
X1422Y959D01*
X1423Y959D01*
X1424Y959D01*
X1425Y959D01*
X1426Y959D01*
X1427Y959D01*
X1428Y959D01*
X1429Y959D01*
X1430Y959D01*
X1431Y959D01*
X1432Y959D01*
X1433Y959D01*
X1434Y959D01*
X1435Y959D01*
X1436Y959D01*
X1437Y959D01*
X1438Y959D01*
X1439Y959D01*
X1440Y959D01*
X1441Y959D01*
X1442Y959D01*
X1443Y959D01*
X1444Y959D01*
X1445Y959D01*
X1446Y959D01*
X1447Y959D01*
X1448Y959D01*
X1449Y959D01*
X1450Y959D01*
X1451Y959D01*
X1452Y959D01*
X1453Y959D01*
X1454Y959D01*
X1455Y959D01*
X1456Y959D01*
X1457Y959D01*
X1458Y959D01*
X1459Y959D01*
X1460Y959D01*
X1461Y959D01*
X1462Y959D01*
X1463Y959D01*
X1464Y959D01*
X1465Y959D01*
X1466Y959D01*
X1467Y959D01*
X1468Y959D01*
X1469Y959D01*
X1470Y959D01*
X1471Y959D01*
X1472Y959D01*
X1473Y959D01*
X1474Y959D01*
X1475Y959D01*
X1476Y959D01*
X1477Y959D01*
X1478Y959D01*
X1479Y959D01*
X1480Y959D01*
X1481Y959D01*
X1482Y959D01*
X1483Y959D01*
X1484Y959D01*
X1485Y959D01*
X1486Y959D01*
X1487Y959D01*
X1488Y959D01*
X1489Y959D01*
X1490Y959D01*
X1491Y959D01*
X1492Y959D01*
X1493Y959D01*
X1494Y959D01*
X1495Y959D01*
X1496Y959D01*
X1497Y959D01*
X1498Y959D01*
X1499Y959D01*
X1500Y959D01*
X1501Y959D01*
X1502Y959D01*
X1503Y959D01*
X1504Y959D01*
X1505Y959D01*
X1506Y959D01*
X1507Y959D01*
X1508Y959D01*
X1509Y959D01*
X1510Y959D01*
X1511Y959D01*
X1512Y959D01*
X1513Y959D01*
X1514Y959D01*
X1515Y959D01*
X1516Y959D01*
X1517Y959D01*
X1518Y959D01*
X1519Y959D01*
X1520Y959D01*
X1521Y959D01*
X1522Y959D01*
X1523Y959D01*
X1524Y959D01*
X1525Y959D01*
X1526Y959D01*
X1527Y959D01*
X1528Y959D01*
X1529Y959D01*
X1530Y959D01*
X1531Y959D01*
X1532Y959D01*
X1533Y959D01*
X1534Y959D01*
X1535Y959D01*
X1536Y959D01*
X1537Y959D01*
X1538Y959D01*
X1539Y959D01*
X1540Y959D01*
X1541Y959D01*
X1542Y959D01*
X1543Y959D01*
X1544Y959D01*
X1545Y959D01*
X1546Y959D01*
X1547Y959D01*
X1548Y959D01*
X1549Y959D01*
X1550Y959D01*
X1551Y959D01*
X1552Y959D01*
X1553Y959D01*
X1554Y959D01*
X1555Y959D01*
X1556Y959D01*
X1557Y959D01*
X1558Y959D01*
X1559Y959D01*
X1560Y959D01*
X1561Y959D01*
X1562Y959D01*
X1563Y959D01*
X1564Y959D01*
X1565Y959D01*
X1566Y959D01*
X1567Y959D01*
X1568Y959D01*
X1569Y959D01*
X1570Y959D01*
X1571Y959D01*
X1572Y959D01*
X1573Y959D01*
X1574Y959D01*
X1575Y959D01*
X1576Y959D01*
X1577Y959D01*
X1578Y959D01*
X1579Y959D01*
X1580Y959D01*
X1581Y959D01*
X1582Y959D01*
X1583Y959D01*
X1584Y959D01*
X1585Y959D01*
X1586Y959D01*
X1587Y959D01*
X1588Y959D01*
X1589Y959D01*
X1590Y959D01*
X1591Y959D01*
X1592Y959D01*
X1593Y959D01*
X1594Y959D01*
X1595Y959D01*
X1596Y959D01*
X1597Y959D01*
X1598Y959D01*
X1599Y959D01*
X1600Y959D01*
X1601Y959D01*
X1602Y959D01*
X1603Y959D01*
X1604Y959D01*
X1605Y959D01*
X1606Y959D01*
X1607Y959D01*
X1608Y959D01*
X1609Y959D01*
X1610Y959D01*
X1611Y959D01*
X1612Y959D01*
X1613Y959D01*
X1614Y959D01*
X1615Y959D01*
X1616Y959D01*
X1617Y959D01*
X1618Y959D01*
X1619Y959D01*
X1620Y959D01*
X1621Y959D01*
X1622Y959D01*
X1623Y959D01*
X1624Y959D01*
X1625Y959D01*
X1626Y959D01*
X1627Y959D01*
X1628Y959D01*
X1629Y959D01*
X1630Y959D01*
X1631Y959D01*
X1632Y959D01*
X1633Y959D01*
X1634Y959D01*
X1635Y959D01*
X1636Y959D01*
X1637Y959D01*
X1638Y959D01*
X1639Y959D01*
X1640Y959D01*
X1641Y959D01*
X1642Y959D01*
X1643Y959D01*
X1644Y959D01*
X1645Y959D01*
X1646Y959D01*
X1647Y959D01*
X1648Y959D01*
X1649Y959D01*
X1650Y959D01*
X1651Y959D01*
X1652Y959D01*
X1653Y959D01*
X1654Y959D01*
X1655Y959D01*
X1656Y959D01*
X1657Y959D01*
X1658Y959D01*
X1659Y959D01*
X1660Y959D01*
X1661Y959D01*
X1662Y959D01*
X1663Y959D01*
X1664Y959D01*
X1665Y959D01*
X1666Y959D01*
X1667Y959D01*
X1668Y959D01*
X1669Y959D01*
X1670Y959D01*
X1671Y959D01*
X1672Y959D01*
X1673Y959D01*
X1674Y959D01*
X1675Y959D01*
X1676Y959D01*
X1677Y959D01*
X1678Y959D01*
X1679Y959D01*
X1680Y959D01*
X1681Y959D01*
X1682Y959D01*
X1683Y959D01*
X1684Y959D01*
X1685Y959D01*
X1686Y959D01*
X1687Y959D01*
X1688Y959D01*
X1689Y959D01*
X1690Y959D01*
X1691Y959D01*
X1692Y959D01*
X1693Y959D01*
X1694Y959D01*
X1695Y959D01*
X1696Y959D01*
X1697Y959D01*
X1698Y959D01*
X1699Y959D01*
X1700Y959D01*
X1701Y959D01*
X1702Y959D01*
X1703Y959D01*
X1704Y959D01*
X1705Y959D01*
X1706Y959D01*
X1707Y959D01*
X1708Y959D01*
X1709Y959D01*
X1710Y959D01*
X1711Y959D01*
X1712Y959D01*
X1713Y959D01*
X1714Y959D01*
X1715Y959D01*
X1716Y959D01*
X1717Y959D01*
X1718Y959D01*
X1719Y959D01*
X1720Y959D01*
X1721Y959D01*
X1722Y959D01*
X1723Y959D01*
X1724Y959D01*
X1725Y959D01*
X1726Y959D01*
X1727Y959D01*
X1728Y959D01*
X1729Y959D01*
X1730Y959D01*
X1731Y959D01*
X1732Y959D01*
X1733Y959D01*
X1734Y959D01*
X1735Y959D01*
X1736Y959D01*
X1737Y959D01*
X1738Y959D01*
X1739Y959D01*
X1740Y959D01*
X1741Y959D01*
X1742Y959D01*
X1743Y959D01*
X1744Y959D01*
X1745Y959D01*
X1746Y959D01*
X1747Y959D01*
X1748Y959D01*
X1749Y959D01*
X1750Y959D01*
X1751Y959D01*
X1752Y959D01*
X1753Y959D01*
X1754Y959D01*
X1755Y959D01*
X1756Y959D01*
X1757Y959D01*
X1758Y959D01*
X1759Y959D01*
X1760Y959D01*
X1761Y959D01*
X1762Y959D01*
X1763Y959D01*
X1764Y959D01*
X1765Y959D01*
X1766Y959D01*
X1767Y959D01*
X1768Y959D01*
X1769Y959D01*
X1770Y959D01*
X1771Y959D01*
X1772Y959D01*
X1773Y959D01*
X1774Y959D01*
X1775Y959D01*
X1776Y959D01*
X1777Y959D01*
X1778Y959D01*
X1779Y959D01*
X1780Y959D01*
X1781Y959D01*
X1782Y959D01*
X1783Y959D01*
X1784Y959D01*
X1785Y959D01*
X1786Y959D01*
X1787Y959D01*
X1788Y959D01*
X1789Y959D01*
X1790Y959D01*
X1791Y959D01*
X1792Y959D01*
X1793Y959D01*
X1794Y959D01*
X1795Y959D01*
X1796Y959D01*
X1797Y959D01*
X1798Y959D01*
X1799Y959D01*
X1800Y959D01*
X1801Y959D01*
X1802Y959D01*
X1803Y959D01*
X1804Y959D01*
X1805Y959D01*
X1806Y959D01*
X1807Y959D01*
X1808Y959D01*
X1809Y959D01*
X1810Y959D01*
X1811Y959D01*
X1812Y959D01*
X1813Y959D01*
X1814Y959D01*
X1815Y959D01*
X1816Y959D01*
X1817Y959D01*
X1818Y959D01*
X1819Y959D01*
X1820Y959D01*
X1821Y959D01*
X1822Y959D01*
X1823Y959D01*
X1824Y959D01*
X1825Y959D01*
X1826Y959D01*
X1827Y959D01*
X1828Y959D01*
X1829Y959D01*
X1830Y959D01*
X1831Y959D01*
X1832Y959D01*
X1833Y959D01*
X1834Y959D01*
X1835Y959D01*
X1836Y959D01*
X1837Y959D01*
X1838Y959D01*
X1839Y959D01*
X1840Y959D01*
X1841Y959D01*
X1842Y959D01*
X1843Y959D01*
X1844Y959D01*
X1845Y959D01*
X1846Y959D01*
X1847Y959D01*
X1848Y959D01*
X1849Y959D01*
X1850Y959D01*
X1851Y959D01*
X1852Y959D01*
X1853Y959D01*
X1854Y958D01*
X1855Y958D01*
X1856Y958D01*
X1857Y958D01*
X1858Y958D01*
X1859Y958D01*
X1860Y958D01*
X1861Y958D01*
X1862Y958D01*
X1863Y958D01*
X1864Y957D01*
X1865Y957D01*
X1866Y957D01*
X1867Y957D01*
X1868Y957D01*
X1869Y957D01*
X1870Y956D01*
X1871Y956D01*
X1872Y956D01*
X1873Y956D01*
X1874Y956D01*
X1875Y955D01*
X1876Y955D01*
X1877Y955D01*
X1878Y955D01*
X1879Y954D01*
X1880Y954D01*
X1881Y954D01*
X1882Y954D01*
X1883Y953D01*
X1884Y953D01*
X1885Y953D01*
X1886Y952D01*
X1887Y952D01*
X1888Y952D01*
X1889Y951D01*
X1890Y951D01*
X1891Y950D01*
X1892Y950D01*
X1893Y950D01*
X1894Y949D01*
X1895Y949D01*
X1896Y948D01*
X1897Y948D01*
X1898Y947D01*
X1899Y947D01*
X1900Y946D01*
X1901Y946D01*
X1902Y945D01*
X1903Y945D01*
X1904Y944D01*
X1905Y944D01*
X1906Y943D01*
X1907Y943D01*
X1908Y942D01*
X1909Y941D01*
X1910Y941D01*
X1911Y940D01*
X1912Y940D01*
X1913Y939D01*
X1914Y938D01*
X1915Y938D01*
X1916Y937D01*
X1917Y936D01*
X1918Y935D01*
X1919Y935D01*
X1920Y934D01*
X1921Y933D01*
X1922Y932D01*
X1923Y931D01*
X1924Y931D01*
X1925Y930D01*
X1926Y929D01*
X1927Y928D01*
X1928Y927D01*
X1929Y926D01*
X1930Y925D01*
X1931Y924D01*
X1932Y923D01*
X1933Y922D01*
X1934Y921D01*
X1935Y920D01*
X1936Y919D01*
X1937Y918D01*
X1937Y917D01*
X1938Y916D01*
X1939Y915D01*
X1940Y914D01*
X1941Y913D01*
X1941Y912D01*
X1942Y911D01*
X1943Y910D01*
X1944Y909D01*
X1944Y908D01*
X1945Y907D01*
X1946Y906D01*
X1946Y905D01*
X1947Y904D01*
X1948Y903D01*
X1948Y902D01*
X1949Y901D01*
X1949Y900D01*
X1950Y899D01*
X1950Y898D01*
X1951Y897D01*
X1952Y896D01*
X1952Y895D01*
X1953Y894D01*
X1953Y893D01*
X1954Y892D01*
X1954Y890D01*
X1955Y889D01*
X1955Y888D01*
X1956Y887D01*
X1956Y886D01*
X1957Y885D01*
X1957Y883D01*
X1958Y882D01*
X1958Y880D01*
X1959Y879D01*
X1959Y877D01*
X1960Y876D01*
X1960Y874D01*
X1961Y873D01*
X1961Y870D01*
X1962Y869D01*
X1962Y866D01*
X1963Y865D01*
X1963Y861D01*
X1964Y860D01*
X1964Y852D01*
X1965Y851D01*
X1965Y110D01*
X1964Y109D01*
X1964Y102D01*
X1963Y101D01*
X1963Y96D01*
X1962Y95D01*
X1962Y92D01*
X1961Y91D01*
X1961Y88D01*
X1960Y87D01*
X1960Y85D01*
X1959Y84D01*
X1959Y82D01*
X1958Y81D01*
X1958Y79D01*
X1957Y78D01*
X1957Y77D01*
X1956Y76D01*
X1956Y74D01*
X1955Y73D01*
X1955Y72D01*
X1954Y71D01*
X1954Y70D01*
X1953Y69D01*
X1953Y68D01*
X1952Y67D01*
X1952Y66D01*
X1951Y65D01*
X1951Y64D01*
X1950Y63D01*
X1950Y62D01*
X1949Y61D01*
X1949Y60D01*
X1948Y59D01*
X1947Y58D01*
X1947Y57D01*
X1946Y56D01*
X1945Y55D01*
X1945Y54D01*
X1944Y53D01*
X1943Y52D01*
X1943Y51D01*
X1942Y50D01*
X1941Y49D01*
X1940Y48D01*
X1940Y47D01*
X1939Y46D01*
X1938Y45D01*
X1937Y44D01*
X1936Y43D01*
X1936Y42D01*
X1935Y41D01*
X1934Y40D01*
X1933Y39D01*
X1932Y38D01*
X1931Y37D01*
X1930Y36D01*
X1929Y35D01*
X1928Y34D01*
X1927Y33D01*
X1926Y32D01*
X1925Y32D01*
X1924Y31D01*
X1923Y30D01*
X1922Y29D01*
X1921Y28D01*
X1920Y27D01*
X1919Y27D01*
X1918Y26D01*
X1917Y25D01*
X1916Y24D01*
X1915Y24D01*
X1914Y23D01*
X1913Y22D01*
X1912Y22D01*
X1911Y21D01*
X1910Y20D01*
X1909Y20D01*
X1908Y19D01*
X1907Y19D01*
X1906Y18D01*
X1905Y18D01*
X1904Y17D01*
X1903Y16D01*
X1902Y16D01*
X1901Y15D01*
X1900Y15D01*
X1899Y14D01*
X1898Y14D01*
X1897Y13D01*
X1896Y13D01*
X1895Y13D01*
X1894Y12D01*
X1893Y12D01*
X1892Y11D01*
X1891Y11D01*
X1890Y10D01*
X1889Y10D01*
X1888Y10D01*
X1887Y9D01*
X1886Y9D01*
X1885Y9D01*
X1884Y8D01*
X1883Y8D01*
X1882Y8D01*
X1881Y7D01*
X1880Y7D01*
X1879Y7D01*
X1878Y7D01*
X1877Y6D01*
X1876Y6D01*
X1875Y6D01*
X1874Y6D01*
X1873Y5D01*
X1872Y5D01*
X1871Y5D01*
X1870Y5D01*
X1869Y5D01*
X1868Y4D01*
X1867Y4D01*
X1866Y4D01*
X1865Y4D01*
X1864Y4D01*
X1863Y4D01*
X1862Y4D01*
X1861Y3D01*
X1860Y3D01*
X1859Y3D01*
X1858Y3D01*
X1857Y3D01*
X1856Y3D01*
X1855Y3D01*
X1854Y3D01*
X1853Y3D01*
X1852Y3D01*
X1851Y3D01*
X1850Y3D01*
X1849Y3D01*
X1848Y3D01*
X1847Y3D01*
X1846Y3D01*
X1845Y3D01*
X1844Y3D01*
X1843Y3D01*
X1842Y3D01*
X1841Y3D01*
X1840Y3D01*
X1839Y3D01*
X1838Y3D01*
X1837Y3D01*
X1836Y3D01*
X1835Y3D01*
X1834Y3D01*
X1833Y3D01*
X1832Y3D01*
X1831Y3D01*
X1830Y3D01*
X1829Y3D01*
X1828Y3D01*
X1827Y3D01*
X1826Y3D01*
X1825Y3D01*
X1824Y3D01*
X1823Y3D01*
X1822Y3D01*
X1821Y3D01*
X1820Y3D01*
X1819Y3D01*
X1818Y3D01*
X1817Y3D01*
X1816Y3D01*
X1815Y3D01*
X1814Y3D01*
X1813Y3D01*
X1812Y3D01*
X1811Y3D01*
X1810Y3D01*
X1809Y3D01*
X1808Y3D01*
X1807Y3D01*
X1806Y3D01*
X1805Y3D01*
X1804Y3D01*
X1803Y3D01*
X1802Y3D01*
X1801Y3D01*
X1800Y3D01*
X1799Y3D01*
X1798Y3D01*
X1797Y3D01*
X1796Y3D01*
X1795Y3D01*
X1794Y3D01*
X1793Y3D01*
X1792Y3D01*
X1791Y3D01*
X1790Y3D01*
X1789Y3D01*
X1788Y3D01*
X1787Y3D01*
X1786Y3D01*
X1785Y3D01*
X1784Y3D01*
X1783Y3D01*
X1782Y3D01*
X1781Y3D01*
X1780Y3D01*
X1779Y3D01*
X1778Y3D01*
X1777Y3D01*
X1776Y3D01*
X1775Y3D01*
X1774Y3D01*
X1773Y3D01*
X1772Y3D01*
X1771Y3D01*
X1770Y3D01*
X1769Y3D01*
X1768Y3D01*
X1767Y3D01*
X1766Y3D01*
X1765Y3D01*
X1764Y3D01*
X1763Y3D01*
X1762Y3D01*
X1761Y3D01*
X1760Y3D01*
X1759Y3D01*
X1758Y3D01*
X1757Y3D01*
X1756Y3D01*
X1755Y3D01*
X1754Y3D01*
X1753Y3D01*
X1752Y3D01*
X1751Y3D01*
X1750Y3D01*
X1749Y3D01*
X1748Y3D01*
X1747Y3D01*
X1746Y3D01*
X1745Y3D01*
X1744Y3D01*
X1743Y3D01*
X1742Y3D01*
X1741Y3D01*
X1740Y3D01*
X1739Y3D01*
X1738Y3D01*
X1737Y3D01*
X1736Y3D01*
X1735Y3D01*
X1734Y3D01*
X1733Y3D01*
X1732Y3D01*
X1731Y3D01*
X1730Y3D01*
X1729Y3D01*
X1728Y3D01*
X1727Y3D01*
X1726Y3D01*
X1725Y3D01*
X1724Y3D01*
X1723Y3D01*
X1722Y3D01*
X1721Y3D01*
X1720Y3D01*
X1719Y3D01*
X1718Y3D01*
X1717Y3D01*
X1716Y3D01*
X1715Y3D01*
X1714Y3D01*
X1713Y3D01*
X1712Y3D01*
X1711Y3D01*
X1710Y3D01*
X1709Y3D01*
X1708Y3D01*
X1707Y3D01*
X1706Y3D01*
X1705Y3D01*
X1704Y3D01*
X1703Y3D01*
X1702Y3D01*
X1701Y3D01*
X1700Y3D01*
X1699Y3D01*
X1698Y3D01*
X1697Y3D01*
X1696Y3D01*
X1695Y3D01*
X1694Y3D01*
X1693Y3D01*
X1692Y3D01*
X1691Y3D01*
X1690Y3D01*
X1689Y3D01*
X1688Y3D01*
X1687Y3D01*
X1686Y3D01*
X1685Y3D01*
X1684Y3D01*
X1683Y3D01*
X1682Y3D01*
X1681Y3D01*
X1680Y3D01*
X1679Y3D01*
X1678Y3D01*
X1677Y3D01*
X1676Y3D01*
X1675Y3D01*
X1674Y3D01*
X1673Y3D01*
X1672Y3D01*
X1671Y3D01*
X1670Y3D01*
X1669Y3D01*
X1668Y3D01*
X1667Y3D01*
X1666Y3D01*
X1665Y3D01*
X1664Y3D01*
X1663Y3D01*
X1662Y3D01*
X1661Y3D01*
X1660Y3D01*
X1659Y3D01*
X1658Y3D01*
X1657Y3D01*
X1656Y3D01*
X1655Y3D01*
X1654Y3D01*
X1653Y3D01*
X1652Y3D01*
X1651Y3D01*
X1650Y3D01*
X1649Y3D01*
X1648Y3D01*
X1647Y3D01*
X1646Y3D01*
X1645Y3D01*
X1644Y3D01*
X1643Y3D01*
X1642Y3D01*
X1641Y3D01*
X1640Y3D01*
X1639Y3D01*
X1638Y3D01*
X1637Y3D01*
X1636Y3D01*
X1635Y3D01*
X1634Y3D01*
X1633Y3D01*
X1632Y3D01*
X1631Y3D01*
X1630Y3D01*
X1629Y3D01*
X1628Y3D01*
X1627Y3D01*
X1626Y3D01*
X1625Y3D01*
X1624Y3D01*
X1623Y3D01*
X1622Y3D01*
X1621Y3D01*
X1620Y3D01*
X1619Y3D01*
X1618Y3D01*
X1617Y3D01*
X1616Y3D01*
X1615Y3D01*
X1614Y3D01*
X1613Y3D01*
X1612Y3D01*
X1611Y3D01*
X1610Y3D01*
X1609Y3D01*
X1608Y3D01*
X1607Y3D01*
X1606Y3D01*
X1605Y3D01*
X1604Y3D01*
X1603Y3D01*
X1602Y3D01*
X1601Y3D01*
X1600Y3D01*
X1599Y3D01*
X1598Y3D01*
X1597Y3D01*
X1596Y3D01*
X1595Y3D01*
X1594Y3D01*
X1593Y3D01*
X1592Y3D01*
X1591Y3D01*
X1590Y3D01*
X1589Y3D01*
X1588Y3D01*
X1587Y3D01*
X1586Y3D01*
X1585Y3D01*
X1584Y3D01*
X1583Y3D01*
X1582Y3D01*
X1581Y3D01*
X1580Y3D01*
X1579Y3D01*
X1578Y3D01*
X1577Y3D01*
X1576Y3D01*
X1575Y3D01*
X1574Y3D01*
X1573Y3D01*
X1572Y3D01*
X1571Y3D01*
X1570Y3D01*
X1569Y3D01*
X1568Y3D01*
X1567Y3D01*
X1566Y3D01*
X1565Y3D01*
X1564Y3D01*
X1563Y3D01*
X1562Y3D01*
X1561Y3D01*
X1560Y3D01*
X1559Y3D01*
X1558Y3D01*
X1557Y3D01*
X1556Y3D01*
X1555Y3D01*
X1554Y3D01*
X1553Y3D01*
X1552Y3D01*
X1551Y3D01*
X1550Y3D01*
X1549Y3D01*
X1548Y3D01*
X1547Y3D01*
X1546Y3D01*
X1545Y3D01*
X1544Y3D01*
X1543Y3D01*
X1542Y3D01*
X1541Y3D01*
X1540Y3D01*
X1539Y3D01*
X1538Y3D01*
X1537Y3D01*
X1536Y3D01*
X1535Y3D01*
X1534Y3D01*
X1533Y3D01*
X1532Y3D01*
X1531Y3D01*
X1530Y3D01*
X1529Y3D01*
X1528Y3D01*
X1527Y3D01*
X1526Y3D01*
X1525Y3D01*
X1524Y3D01*
X1523Y3D01*
X1522Y3D01*
X1521Y3D01*
X1520Y3D01*
X1519Y3D01*
X1518Y3D01*
X1517Y3D01*
X1516Y3D01*
X1515Y3D01*
X1514Y3D01*
X1513Y3D01*
X1512Y3D01*
X1511Y3D01*
X1510Y3D01*
X1509Y3D01*
X1508Y3D01*
X1507Y3D01*
X1506Y3D01*
X1505Y3D01*
X1504Y3D01*
X1503Y3D01*
X1502Y3D01*
X1501Y3D01*
X1500Y3D01*
X1499Y3D01*
X1498Y3D01*
X1497Y3D01*
X1496Y3D01*
X1495Y3D01*
X1494Y3D01*
X1493Y3D01*
X1492Y3D01*
X1491Y3D01*
X1490Y3D01*
X1489Y3D01*
X1488Y3D01*
X1487Y3D01*
X1486Y3D01*
X1485Y3D01*
X1484Y3D01*
X1483Y3D01*
X1482Y3D01*
X1481Y3D01*
X1480Y3D01*
X1479Y3D01*
X1478Y3D01*
X1477Y3D01*
X1476Y3D01*
X1475Y3D01*
X1474Y3D01*
X1473Y3D01*
X1472Y3D01*
X1471Y3D01*
X1470Y3D01*
X1469Y3D01*
X1468Y3D01*
X1467Y3D01*
X1466Y3D01*
X1465Y3D01*
X1464Y3D01*
X1463Y3D01*
X1462Y3D01*
X1461Y3D01*
X1460Y3D01*
X1459Y3D01*
X1458Y3D01*
X1457Y3D01*
X1456Y3D01*
X1455Y3D01*
X1454Y3D01*
X1453Y3D01*
X1452Y3D01*
X1451Y3D01*
X1450Y3D01*
X1449Y3D01*
X1448Y3D01*
X1447Y3D01*
X1446Y3D01*
X1445Y3D01*
X1444Y3D01*
X1443Y3D01*
X1442Y3D01*
X1441Y3D01*
X1440Y3D01*
X1439Y3D01*
X1438Y3D01*
X1437Y3D01*
X1436Y3D01*
X1435Y3D01*
X1434Y3D01*
X1433Y3D01*
X1432Y3D01*
X1431Y3D01*
X1430Y3D01*
X1429Y3D01*
X1428Y3D01*
X1427Y3D01*
X1426Y3D01*
X1425Y3D01*
X1424Y3D01*
X1423Y3D01*
X1422Y3D01*
X1421Y3D01*
X1420Y3D01*
X1419Y3D01*
X1418Y3D01*
X1417Y3D01*
X1416Y3D01*
X1415Y3D01*
X1414Y3D01*
X1413Y3D01*
X1412Y3D01*
X1411Y3D01*
X1410Y3D01*
X1409Y3D01*
X1408Y3D01*
X1407Y3D01*
X1406Y3D01*
X1405Y3D01*
X1404Y3D01*
X1403Y3D01*
X1402Y3D01*
X1401Y3D01*
X1400Y3D01*
X1399Y3D01*
X1398Y3D01*
X1397Y3D01*
X1396Y3D01*
X1395Y3D01*
X1394Y3D01*
X1393Y3D01*
X1392Y3D01*
X1391Y3D01*
X1390Y3D01*
X1389Y3D01*
X1388Y3D01*
X1387Y3D01*
X1386Y3D01*
X1385Y3D01*
X1384Y3D01*
X1383Y3D01*
X1382Y3D01*
X1381Y3D01*
X1380Y3D01*
X1379Y3D01*
X1378Y3D01*
X1377Y3D01*
X1376Y3D01*
X1375Y3D01*
X1374Y3D01*
X1373Y3D01*
X1372Y3D01*
X1371Y3D01*
X1370Y3D01*
X1369Y3D01*
X1368Y3D01*
X1367Y3D01*
X1366Y3D01*
X1365Y3D01*
X1364Y3D01*
X1363Y3D01*
X1362Y3D01*
X1361Y3D01*
X1360Y3D01*
X1359Y3D01*
X1358Y3D01*
X1357Y3D01*
X1356Y3D01*
X1355Y3D01*
X1354Y3D01*
X1353Y3D01*
X1352Y3D01*
X1351Y3D01*
X1350Y3D01*
X1349Y3D01*
X1348Y3D01*
X1347Y3D01*
X1346Y3D01*
X1345Y3D01*
X1344Y3D01*
X1343Y3D01*
X1342Y3D01*
X1341Y3D01*
X1340Y3D01*
X1339Y3D01*
X1338Y3D01*
X1337Y3D01*
X1336Y3D01*
X1335Y3D01*
X1334Y3D01*
X1333Y3D01*
X1332Y3D01*
X1331Y3D01*
X1330Y3D01*
X1329Y3D01*
X1328Y3D01*
X1327Y3D01*
X1326Y3D01*
X1325Y3D01*
X1324Y3D01*
X1323Y3D01*
X1322Y3D01*
X1321Y3D01*
X1320Y3D01*
X1319Y3D01*
X1318Y3D01*
X1317Y3D01*
X1316Y3D01*
X1315Y3D01*
X1314Y3D01*
X1313Y3D01*
X1312Y3D01*
X1311Y3D01*
X1310Y3D01*
X1309Y3D01*
X1308Y3D01*
X1307Y3D01*
X1306Y3D01*
X1305Y3D01*
X1304Y3D01*
X1303Y3D01*
X1302Y3D01*
X1301Y3D01*
X1300Y3D01*
X1299Y3D01*
X1298Y3D01*
X1297Y3D01*
X1296Y3D01*
X1295Y3D01*
X1294Y3D01*
X1293Y3D01*
X1292Y3D01*
X1291Y3D01*
X1290Y3D01*
X1289Y3D01*
X1288Y3D01*
X1287Y3D01*
X1286Y3D01*
X1285Y3D01*
X1284Y3D01*
X1283Y3D01*
X1282Y3D01*
X1281Y3D01*
X1280Y3D01*
X1279Y3D01*
X1278Y3D01*
X1277Y3D01*
X1276Y3D01*
X1275Y3D01*
X1274Y3D01*
X1273Y3D01*
X1272Y3D01*
X1271Y3D01*
X1270Y3D01*
X1269Y3D01*
X1268Y3D01*
X1267Y3D01*
X1266Y3D01*
X1265Y3D01*
X1264Y3D01*
X1263Y3D01*
X1262Y3D01*
X1261Y3D01*
X1260Y3D01*
X1259Y3D01*
X1258Y3D01*
X1257Y3D01*
X1256Y3D01*
X1255Y3D01*
X1254Y3D01*
X1253Y3D01*
X1252Y3D01*
X1251Y3D01*
X1250Y3D01*
X1249Y3D01*
X1248Y3D01*
X1247Y3D01*
X1246Y3D01*
X1245Y3D01*
X1244Y3D01*
X1243Y3D01*
X1242Y3D01*
X1241Y3D01*
X1240Y3D01*
X1239Y3D01*
X1238Y3D01*
X1237Y3D01*
X1236Y3D01*
X1235Y3D01*
X1234Y3D01*
X1233Y3D01*
X1232Y3D01*
X1231Y3D01*
X1230Y3D01*
X1229Y3D01*
X1228Y3D01*
X1227Y3D01*
X1226Y3D01*
X1225Y3D01*
X1224Y3D01*
X1223Y3D01*
X1222Y3D01*
X1221Y3D01*
X1220Y3D01*
X1219Y3D01*
X1218Y3D01*
X1217Y3D01*
X1216Y3D01*
X1215Y3D01*
X1214Y3D01*
X1213Y3D01*
X1212Y3D01*
X1211Y3D01*
X1210Y3D01*
X1209Y3D01*
X1208Y3D01*
X1207Y3D01*
X1206Y3D01*
X1205Y3D01*
X1204Y3D01*
X1203Y3D01*
X1202Y3D01*
X1201Y3D01*
X1200Y3D01*
X1199Y3D01*
X1198Y3D01*
X1197Y3D01*
X1196Y3D01*
X1195Y3D01*
X1194Y3D01*
X1193Y3D01*
X1192Y3D01*
X1191Y3D01*
X1190Y3D01*
X1189Y3D01*
X1188Y3D01*
X1187Y3D01*
X1186Y3D01*
X1185Y3D01*
X1184Y3D01*
X1183Y3D01*
X1182Y3D01*
X1181Y3D01*
X1180Y3D01*
X1179Y3D01*
X1178Y3D01*
X1177Y3D01*
X1176Y3D01*
X1175Y3D01*
X1174Y3D01*
X1173Y3D01*
X1172Y3D01*
X1171Y3D01*
X1170Y3D01*
X1169Y3D01*
X1168Y3D01*
X1167Y3D01*
X1166Y3D01*
X1165Y3D01*
X1164Y3D01*
X1163Y3D01*
X1162Y3D01*
X1161Y3D01*
X1160Y3D01*
X1159Y3D01*
X1158Y3D01*
X1157Y3D01*
X1156Y3D01*
X1155Y3D01*
X1154Y3D01*
X1153Y3D01*
X1152Y3D01*
X1151Y3D01*
X1150Y3D01*
X1149Y3D01*
X1148Y3D01*
X1147Y3D01*
X1146Y3D01*
X1145Y3D01*
X1144Y3D01*
X1143Y3D01*
X1142Y3D01*
X1141Y3D01*
X1140Y3D01*
X1139Y3D01*
X1138Y3D01*
X1137Y3D01*
X1136Y3D01*
X1135Y3D01*
X1134Y3D01*
X1133Y3D01*
X1132Y3D01*
X1131Y3D01*
X1130Y3D01*
X1129Y3D01*
X1128Y3D01*
X1127Y3D01*
X1126Y3D01*
X1125Y3D01*
X1124Y3D01*
X1123Y3D01*
X1122Y3D01*
X1121Y3D01*
X1120Y3D01*
X1119Y3D01*
X1118Y3D01*
X1117Y3D01*
X1116Y3D01*
X1115Y3D01*
X1114Y3D01*
X1113Y3D01*
X1112Y3D01*
X1111Y3D01*
X1110Y3D01*
X1109Y3D01*
X1108Y3D01*
X1107Y3D01*
X1106Y3D01*
X1105Y3D01*
X1104Y3D01*
X1103Y3D01*
X1102Y3D01*
X1101Y3D01*
X1100Y3D01*
X1099Y3D01*
X1098Y3D01*
X1097Y3D01*
X1096Y3D01*
X1095Y3D01*
X1094Y3D01*
X1093Y3D01*
X1092Y3D01*
X1091Y3D01*
X1090Y3D01*
X1089Y3D01*
X1088Y3D01*
X1087Y3D01*
X1086Y3D01*
X1085Y3D01*
X1084Y3D01*
X1083Y3D01*
X1082Y3D01*
X1081Y3D01*
X1080Y3D01*
X1079Y3D01*
X1078Y3D01*
X1077Y3D01*
X1076Y3D01*
X1075Y3D01*
X1074Y3D01*
X1073Y3D01*
X1072Y3D01*
X1071Y3D01*
X1070Y3D01*
X1069Y3D01*
X1068Y3D01*
X1067Y3D01*
X1066Y3D01*
X1065Y3D01*
X1064Y3D01*
X1063Y3D01*
X1062Y3D01*
X1061Y3D01*
X1060Y3D01*
X1059Y3D01*
X1058Y3D01*
X1057Y3D01*
X1056Y3D01*
X1055Y3D01*
X1054Y3D01*
X1053Y3D01*
X1052Y3D01*
X1051Y3D01*
X1050Y3D01*
X1049Y3D01*
X1048Y3D01*
X1047Y3D01*
X1046Y3D01*
X1045Y3D01*
X1044Y3D01*
X1043Y3D01*
X1042Y3D01*
X1041Y3D01*
X1040Y3D01*
X1039Y3D01*
X1038Y3D01*
X1037Y3D01*
X1036Y3D01*
X1035Y3D01*
X1034Y3D01*
X1033Y3D01*
X1032Y3D01*
X1031Y3D01*
X1030Y3D01*
X1029Y3D01*
X1028Y3D01*
X1027Y3D01*
X1026Y3D01*
X1025Y3D01*
X1024Y3D01*
X1023Y3D01*
X1022Y3D01*
X1021Y3D01*
X1020Y3D01*
X1019Y3D01*
X1018Y3D01*
X1017Y3D01*
X1016Y3D01*
X1015Y3D01*
X1014Y3D01*
X1013Y3D01*
X1012Y3D01*
X1011Y3D01*
X1010Y3D01*
X1009Y3D01*
X1008Y3D01*
X1007Y3D01*
X1006Y3D01*
X1005Y3D01*
X1004Y3D01*
X1003Y3D01*
X1002Y3D01*
X1001Y3D01*
X1000Y3D01*
X999Y3D01*
X998Y3D01*
X997Y3D01*
X996Y3D01*
X995Y3D01*
X994Y3D01*
X993Y3D01*
X992Y3D01*
X991Y3D01*
X990Y3D01*
X989Y3D01*
X988Y3D01*
X987Y3D01*
X986Y3D01*
X985Y3D01*
X984Y3D01*
X983Y3D01*
X982Y3D01*
X981Y3D01*
X980Y3D01*
X979Y3D01*
X978Y3D01*
X977Y3D01*
X976Y3D01*
X975Y3D01*
X974Y3D01*
X973Y3D01*
X972Y3D01*
X971Y3D01*
X970Y3D01*
X969Y3D01*
X968Y3D01*
X967Y3D01*
X966Y3D01*
X965Y3D01*
X964Y3D01*
X963Y3D01*
X962Y3D01*
X961Y3D01*
X960Y3D01*
X959Y3D01*
X958Y3D01*
X957Y3D01*
X956Y3D01*
X955Y3D01*
X954Y3D01*
X953Y3D01*
X952Y3D01*
X951Y3D01*
X950Y3D01*
X949Y3D01*
X948Y3D01*
X947Y3D01*
X946Y3D01*
X945Y3D01*
X944Y3D01*
X943Y3D01*
X942Y3D01*
X941Y3D01*
X940Y3D01*
X939Y3D01*
X938Y3D01*
X937Y3D01*
X936Y3D01*
X935Y3D01*
X934Y3D01*
X933Y3D01*
X932Y3D01*
X931Y3D01*
X930Y3D01*
X929Y3D01*
X928Y3D01*
X927Y3D01*
X926Y3D01*
X925Y3D01*
X924Y3D01*
X923Y3D01*
X922Y3D01*
X921Y3D01*
X920Y3D01*
X919Y3D01*
X918Y3D01*
X917Y3D01*
X916Y3D01*
X915Y3D01*
X914Y3D01*
X913Y3D01*
X912Y3D01*
X911Y3D01*
X910Y3D01*
X909Y3D01*
X908Y3D01*
X907Y3D01*
X906Y3D01*
X905Y3D01*
X904Y3D01*
X903Y3D01*
X902Y3D01*
X901Y3D01*
X900Y3D01*
X899Y3D01*
X898Y3D01*
X897Y3D01*
X896Y3D01*
X895Y3D01*
X894Y3D01*
X893Y3D01*
X892Y3D01*
X891Y3D01*
X890Y3D01*
X889Y3D01*
X888Y3D01*
X887Y3D01*
X886Y3D01*
X885Y3D01*
X884Y3D01*
X883Y3D01*
X882Y3D01*
X881Y3D01*
X880Y3D01*
X879Y3D01*
X878Y3D01*
X877Y3D01*
X876Y3D01*
X875Y3D01*
X874Y3D01*
X873Y3D01*
X872Y3D01*
X871Y3D01*
X870Y3D01*
X869Y3D01*
X868Y3D01*
X867Y3D01*
X866Y3D01*
X865Y3D01*
X864Y3D01*
X863Y3D01*
X862Y3D01*
X861Y3D01*
X860Y3D01*
X859Y3D01*
X858Y3D01*
X857Y3D01*
X856Y3D01*
X855Y3D01*
X854Y3D01*
X853Y3D01*
X852Y3D01*
X851Y3D01*
X850Y3D01*
X849Y3D01*
X848Y3D01*
X847Y3D01*
X846Y3D01*
X845Y3D01*
X844Y3D01*
X843Y3D01*
X842Y3D01*
X841Y3D01*
X840Y3D01*
X839Y3D01*
X838Y3D01*
X837Y3D01*
X836Y3D01*
X835Y3D01*
X834Y3D01*
X833Y3D01*
X832Y3D01*
X831Y3D01*
X830Y3D01*
X829Y3D01*
X828Y3D01*
X827Y3D01*
X826Y3D01*
X825Y3D01*
X824Y3D01*
X823Y3D01*
X822Y3D01*
X821Y3D01*
X820Y3D01*
X819Y3D01*
X818Y3D01*
X817Y3D01*
X816Y3D01*
X815Y3D01*
X814Y3D01*
X813Y3D01*
X812Y3D01*
X811Y3D01*
X810Y3D01*
X809Y3D01*
X808Y3D01*
X807Y3D01*
X806Y3D01*
X805Y3D01*
X804Y3D01*
X803Y3D01*
X802Y3D01*
X801Y3D01*
X800Y3D01*
X799Y3D01*
X798Y3D01*
X797Y3D01*
X796Y3D01*
X795Y3D01*
X794Y3D01*
X793Y3D01*
X792Y3D01*
X791Y3D01*
X790Y3D01*
X789Y3D01*
X788Y3D01*
X787Y3D01*
X786Y3D01*
X785Y3D01*
X784Y3D01*
X783Y3D01*
X782Y3D01*
X781Y3D01*
X780Y3D01*
X779Y3D01*
X778Y3D01*
X777Y3D01*
X776Y3D01*
X775Y3D01*
X774Y3D01*
X773Y3D01*
X772Y3D01*
X771Y3D01*
X770Y3D01*
X769Y3D01*
X768Y3D01*
X767Y3D01*
X766Y3D01*
X765Y3D01*
X764Y3D01*
X763Y3D01*
X762Y3D01*
X761Y3D01*
X760Y3D01*
X759Y3D01*
X758Y3D01*
X757Y3D01*
X756Y3D01*
X755Y3D01*
X754Y3D01*
X753Y3D01*
X752Y3D01*
X751Y3D01*
X750Y3D01*
X749Y3D01*
X748Y3D01*
X747Y3D01*
X746Y3D01*
X745Y3D01*
X744Y3D01*
X743Y3D01*
X742Y3D01*
X741Y3D01*
X740Y3D01*
X739Y3D01*
X738Y3D01*
X737Y3D01*
X736Y3D01*
X735Y3D01*
X734Y3D01*
X733Y3D01*
X732Y3D01*
X731Y3D01*
X730Y3D01*
X729Y3D01*
X728Y3D01*
X727Y3D01*
X726Y3D01*
X725Y3D01*
X724Y3D01*
X723Y3D01*
X722Y3D01*
X721Y3D01*
X720Y3D01*
X719Y3D01*
X718Y3D01*
X717Y3D01*
X716Y3D01*
X715Y3D01*
X714Y3D01*
X713Y3D01*
X712Y3D01*
X711Y3D01*
X710Y3D01*
X709Y3D01*
X708Y3D01*
X707Y3D01*
X706Y3D01*
X705Y3D01*
X704Y3D01*
X703Y3D01*
X702Y3D01*
X701Y3D01*
X700Y3D01*
X699Y3D01*
X698Y3D01*
X697Y3D01*
X696Y3D01*
X695Y3D01*
X694Y3D01*
X693Y3D01*
X692Y3D01*
X691Y3D01*
X690Y3D01*
X689Y3D01*
X688Y3D01*
X687Y3D01*
X686Y3D01*
X685Y3D01*
X684Y3D01*
X683Y3D01*
X682Y3D01*
X681Y3D01*
X680Y3D01*
X679Y3D01*
X678Y3D01*
X677Y3D01*
X676Y3D01*
X675Y3D01*
X674Y3D01*
X673Y3D01*
X672Y3D01*
X671Y3D01*
X670Y3D01*
X669Y3D01*
X668Y3D01*
X667Y3D01*
X666Y3D01*
X665Y3D01*
X664Y3D01*
X663Y3D01*
X662Y3D01*
X661Y3D01*
X660Y3D01*
X659Y3D01*
X658Y3D01*
X657Y3D01*
X656Y3D01*
X655Y3D01*
X654Y3D01*
X653Y3D01*
X652Y3D01*
X651Y3D01*
X650Y3D01*
X649Y3D01*
X648Y3D01*
X647Y3D01*
X646Y3D01*
X645Y3D01*
X644Y3D01*
X643Y3D01*
X642Y3D01*
X641Y3D01*
X640Y3D01*
X639Y3D01*
X638Y3D01*
X637Y3D01*
X636Y3D01*
X635Y3D01*
X634Y3D01*
X633Y3D01*
X632Y3D01*
X631Y3D01*
X630Y3D01*
X629Y3D01*
X628Y3D01*
X627Y3D01*
X626Y3D01*
X625Y3D01*
X624Y3D01*
X623Y3D01*
X622Y3D01*
X621Y3D01*
X620Y3D01*
X619Y3D01*
X618Y3D01*
X617Y3D01*
X616Y3D01*
X615Y3D01*
X614Y3D01*
X613Y3D01*
X612Y3D01*
X611Y3D01*
X610Y3D01*
X609Y3D01*
X608Y3D01*
X607Y3D01*
X606Y3D01*
X605Y3D01*
X604Y3D01*
X603Y3D01*
X602Y3D01*
X601Y3D01*
X600Y3D01*
X599Y3D01*
X598Y3D01*
X597Y3D01*
X596Y3D01*
X595Y3D01*
X594Y3D01*
X593Y3D01*
X592Y3D01*
X591Y3D01*
X590Y3D01*
X589Y3D01*
X588Y3D01*
X587Y3D01*
X586Y3D01*
X585Y3D01*
X584Y3D01*
X583Y3D01*
X582Y3D01*
X581Y3D01*
X580Y3D01*
X579Y3D01*
X578Y3D01*
X577Y3D01*
X576Y3D01*
X575Y3D01*
X574Y3D01*
X573Y3D01*
X572Y3D01*
X571Y3D01*
X570Y3D01*
X569Y3D01*
X568Y3D01*
X567Y3D01*
X566Y3D01*
X565Y3D01*
X564Y3D01*
X563Y3D01*
X562Y3D01*
X561Y3D01*
X560Y3D01*
X559Y3D01*
X558Y3D01*
X557Y3D01*
X556Y3D01*
X555Y3D01*
X554Y3D01*
X553Y3D01*
X552Y3D01*
X551Y3D01*
X550Y3D01*
X549Y3D01*
X548Y3D01*
X547Y3D01*
X546Y3D01*
X545Y3D01*
X544Y3D01*
X543Y3D01*
X542Y3D01*
X541Y3D01*
X540Y3D01*
X539Y3D01*
X538Y3D01*
X537Y3D01*
X536Y3D01*
X535Y3D01*
X534Y3D01*
X533Y3D01*
X532Y3D01*
X531Y3D01*
X530Y3D01*
X529Y3D01*
X528Y3D01*
X527Y3D01*
X526Y3D01*
X525Y3D01*
X524Y3D01*
X523Y3D01*
X522Y3D01*
X521Y3D01*
X520Y3D01*
X519Y3D01*
X518Y3D01*
X517Y3D01*
X516Y3D01*
X515Y3D01*
X514Y3D01*
X513Y3D01*
X512Y3D01*
X511Y3D01*
X510Y3D01*
X509Y3D01*
X508Y3D01*
X507Y3D01*
X506Y3D01*
X505Y3D01*
X504Y3D01*
X503Y3D01*
X502Y3D01*
X501Y3D01*
X500Y3D01*
X499Y3D01*
X498Y3D01*
X497Y3D01*
X496Y3D01*
X495Y3D01*
X494Y3D01*
X493Y3D01*
X492Y3D01*
X491Y3D01*
X490Y3D01*
X489Y3D01*
X488Y3D01*
X487Y3D01*
X486Y3D01*
X485Y3D01*
X484Y3D01*
X483Y3D01*
X482Y3D01*
X481Y3D01*
X480Y3D01*
X479Y3D01*
X478Y3D01*
X477Y3D01*
X476Y3D01*
X475Y3D01*
X474Y3D01*
X473Y3D01*
X472Y3D01*
X471Y3D01*
X470Y3D01*
X469Y3D01*
X468Y3D01*
X467Y3D01*
X466Y3D01*
X465Y3D01*
X464Y3D01*
X463Y3D01*
X462Y3D01*
X461Y3D01*
X460Y3D01*
X459Y3D01*
X458Y3D01*
X457Y3D01*
X456Y3D01*
X455Y3D01*
X454Y3D01*
X453Y3D01*
X452Y3D01*
X451Y3D01*
X450Y3D01*
X449Y3D01*
X448Y3D01*
X447Y3D01*
X446Y3D01*
X445Y3D01*
X444Y3D01*
X443Y3D01*
X442Y3D01*
X441Y3D01*
X440Y3D01*
X439Y3D01*
X438Y3D01*
X437Y3D01*
X436Y3D01*
X435Y3D01*
X434Y3D01*
X433Y3D01*
X432Y3D01*
X431Y3D01*
X430Y3D01*
X429Y3D01*
X428Y3D01*
X427Y3D01*
X426Y3D01*
X425Y3D01*
X424Y3D01*
X423Y3D01*
X422Y3D01*
X421Y3D01*
X420Y3D01*
X419Y3D01*
X418Y3D01*
X417Y3D01*
X416Y3D01*
X415Y3D01*
X414Y3D01*
X413Y3D01*
X412Y3D01*
X411Y3D01*
X410Y3D01*
X409Y3D01*
X408Y3D01*
X407Y3D01*
X406Y3D01*
X405Y3D01*
X404Y3D01*
X403Y3D01*
X402Y3D01*
X401Y3D01*
X400Y3D01*
X399Y3D01*
X398Y3D01*
X397Y3D01*
X396Y3D01*
X395Y3D01*
X394Y3D01*
X393Y3D01*
X392Y3D01*
X391Y3D01*
X390Y3D01*
X389Y3D01*
X388Y3D01*
X387Y3D01*
X386Y3D01*
X385Y3D01*
X384Y3D01*
X383Y3D01*
X382Y3D01*
X381Y3D01*
X380Y3D01*
X379Y3D01*
X378Y3D01*
X377Y3D01*
X376Y3D01*
X375Y3D01*
X374Y3D01*
X373Y3D01*
X372Y3D01*
X371Y3D01*
X370Y3D01*
X369Y3D01*
X368Y3D01*
X367Y3D01*
X366Y3D01*
X365Y3D01*
X364Y3D01*
X363Y3D01*
X362Y3D01*
X361Y3D01*
X360Y3D01*
X359Y3D01*
X358Y3D01*
X357Y3D01*
X356Y3D01*
X355Y3D01*
X354Y3D01*
X353Y3D01*
X352Y3D01*
X351Y3D01*
X350Y3D01*
X349Y3D01*
X348Y3D01*
X347Y3D01*
X346Y3D01*
X345Y3D01*
X344Y3D01*
X343Y3D01*
X342Y3D01*
X341Y3D01*
X340Y3D01*
X339Y3D01*
X338Y3D01*
X337Y3D01*
X336Y3D01*
X335Y3D01*
X334Y3D01*
X333Y3D01*
X332Y3D01*
X331Y3D01*
X330Y3D01*
X329Y3D01*
X328Y3D01*
X327Y3D01*
X326Y3D01*
X325Y3D01*
X324Y3D01*
X323Y3D01*
X322Y3D01*
X321Y3D01*
X320Y3D01*
X319Y3D01*
X318Y3D01*
X317Y3D01*
X316Y3D01*
X315Y3D01*
X314Y3D01*
X313Y3D01*
X312Y3D01*
X311Y3D01*
X310Y3D01*
X309Y3D01*
X308Y3D01*
X307Y3D01*
X306Y3D01*
X305Y3D01*
X304Y3D01*
X303Y3D01*
X302Y3D01*
X301Y3D01*
X300Y3D01*
X299Y3D01*
X298Y3D01*
X297Y3D01*
X296Y3D01*
X295Y3D01*
X294Y3D01*
X293Y3D01*
X292Y3D01*
X291Y3D01*
X290Y3D01*
X289Y3D01*
X288Y3D01*
X287Y3D01*
X286Y3D01*
X285Y3D01*
X284Y3D01*
X283Y3D01*
X282Y3D01*
X281Y3D01*
X280Y3D01*
X279Y3D01*
X278Y3D01*
X277Y3D01*
X276Y3D01*
X275Y3D01*
X274Y3D01*
X273Y3D01*
X272Y3D01*
X271Y3D01*
X270Y3D01*
X269Y3D01*
X268Y3D01*
X267Y3D01*
X266Y3D01*
X265Y3D01*
X264Y3D01*
X263Y3D01*
X262Y3D01*
X261Y3D01*
X260Y3D01*
X259Y3D01*
X258Y3D01*
X257Y3D01*
X256Y3D01*
X255Y3D01*
X254Y3D01*
X253Y3D01*
X252Y3D01*
X251Y3D01*
X250Y3D01*
X249Y3D01*
X248Y3D01*
X247Y3D01*
X246Y3D01*
X245Y3D01*
X244Y3D01*
X243Y3D01*
X242Y3D01*
X241Y3D01*
X240Y3D01*
X239Y3D01*
X238Y3D01*
X237Y3D01*
X236Y3D01*
X235Y3D01*
X234Y3D01*
X233Y3D01*
X232Y3D01*
X231Y3D01*
X230Y3D01*
X229Y3D01*
X228Y3D01*
X227Y3D01*
X226Y3D01*
X225Y3D01*
X224Y3D01*
X223Y3D01*
X222Y3D01*
X221Y3D01*
X220Y3D01*
X219Y3D01*
X218Y3D01*
X217Y3D01*
X216Y3D01*
X215Y3D01*
X214Y3D01*
X213Y3D01*
X212Y3D01*
X211Y3D01*
X210Y3D01*
X209Y3D01*
X208Y3D01*
X207Y3D01*
X206Y3D01*
X205Y3D01*
X204Y3D01*
X203Y3D01*
X202Y3D01*
X201Y3D01*
X200Y3D01*
X199Y3D01*
X198Y3D01*
X197Y3D01*
X196Y3D01*
X195Y3D01*
X194Y3D01*
X193Y3D01*
X192Y3D01*
X191Y3D01*
X190Y3D01*
X189Y3D01*
X188Y3D01*
X187Y3D01*
X186Y3D01*
X185Y3D01*
X184Y3D01*
X183Y3D01*
X182Y3D01*
X181Y3D01*
X180Y3D01*
X179Y3D01*
X178Y3D01*
X177Y3D01*
X176Y3D01*
X175Y3D01*
X174Y3D01*
X173Y3D01*
X172Y3D01*
X171Y3D01*
X170Y3D01*
X169Y3D01*
X168Y3D01*
X167Y3D01*
X166Y3D01*
X165Y3D01*
X164Y3D01*
X163Y3D01*
X162Y3D01*
X161Y3D01*
X160Y3D01*
X159Y3D01*
X158Y3D01*
X157Y3D01*
X156Y3D01*
X155Y3D01*
X154Y3D01*
X153Y3D01*
X152Y3D01*
X151Y3D01*
X150Y3D01*
X149Y3D01*
X148Y3D01*
X147Y3D01*
X146Y3D01*
X145Y3D01*
X144Y3D01*
X143Y3D01*
X142Y3D01*
X141Y3D01*
X140Y3D01*
X139Y3D01*
X138Y3D01*
X137Y3D01*
X136Y3D01*
X135Y3D01*
X134Y3D01*
X133Y3D01*
X132Y3D01*
X131Y3D01*
X130Y3D01*
X129Y3D01*
X128Y3D01*
X127Y3D01*
X126Y3D01*
X125Y3D01*
X124Y3D01*
X123Y3D01*
X122Y3D01*
X121Y3D01*
X120Y3D01*
X119Y3D01*
X118Y3D01*
X117Y3D01*
X116Y3D01*
X115Y3D01*
X114Y3D01*
X113Y3D01*
X112Y3D01*
X111Y3D01*
X110Y3D01*
X109Y3D01*
X108Y3D01*
X107Y3D01*
X106Y3D01*
X105Y3D01*
X104Y3D01*
X103Y4D01*
X102Y4D01*
X101Y4D01*
X100Y4D01*
X99Y4D01*
X98Y4D01*
X97Y5D01*
X96Y5D01*
X95Y5D01*
X94Y5D01*
X93Y5D01*
X92Y6D01*
X91Y6D01*
X90Y6D01*
X89Y6D01*
X88Y6D01*
X87Y7D01*
X86Y7D01*
X85Y7D01*
X84Y8D01*
X83Y8D01*
X82Y8D01*
X81Y9D01*
X80Y9D01*
X79Y9D01*
X78Y10D01*
X77Y10D01*
X76Y10D01*
X75Y11D01*
X74Y11D01*
X73Y12D01*
X72Y12D01*
X71Y12D01*
X70Y13D01*
X69Y13D01*
X68Y14D01*
X67Y14D01*
X66Y15D01*
X65Y15D01*
X64Y16D01*
X63Y16D01*
X62Y17D01*
X61Y17D01*
X60Y18D01*
X59Y18D01*
X58Y19D01*
X57Y20D01*
X56Y20D01*
X55Y21D01*
X54Y22D01*
X53Y22D01*
X52Y23D01*
X51Y23D01*
X50Y24D01*
X49Y25D01*
X48Y26D01*
X47Y26D01*
X46Y27D01*
X45Y28D01*
X44Y29D01*
X43Y30D01*
X42Y30D01*
X41Y31D01*
X40Y32D01*
X39Y33D01*
X38Y34D01*
X37Y35D01*
X36Y36D01*
X35Y37D01*
X34Y38D01*
X33Y39D01*
X32Y40D01*
X31Y41D01*
X30Y42D01*
X29Y43D01*
X28Y44D01*
X28Y45D01*
X27Y46D01*
X26Y47D01*
X25Y48D01*
X24Y49D01*
X24Y50D01*
X23Y51D01*
X22Y52D01*
X21Y53D01*
X21Y54D01*
X20Y55D01*
X19Y56D01*
X19Y57D01*
X18Y58D01*
X18Y59D01*
X17Y60D01*
X16Y61D01*
X16Y62D01*
X15Y63D01*
X15Y64D01*
X14Y65D01*
X14Y66D01*
X13Y67D01*
X13Y68D01*
X12Y69D01*
X12Y70D01*
X11Y71D01*
X11Y72D01*
X10Y73D01*
X10Y75D01*
X9Y76D01*
X9Y77D01*
X8Y78D01*
X8Y80D01*
X7Y81D01*
X7Y83D01*
X6Y84D01*
X6Y86D01*
X5Y87D01*
X5Y89D01*
X4Y90D01*
X4Y94D01*
X3Y95D01*
X3Y99D01*
X2Y100D01*
X2Y105D01*
X1Y106D01*
X1Y855D01*
X2Y856D01*
X2Y862D01*
X3Y863D01*
X3Y867D01*
X4Y868D01*
X4Y871D01*
X5Y872D01*
X5Y874D01*
X6Y875D01*
X6Y878D01*
X7Y879D01*
X7Y881D01*
X8Y882D01*
X8Y883D01*
X9Y884D01*
X9Y886D01*
X10Y887D01*
X10Y888D01*
X11Y889D01*
X11Y890D01*
X12Y891D01*
X12Y892D01*
X13Y893D01*
X13Y894D01*
X14Y895D01*
X14Y896D01*
X15Y897D01*
X15Y898D01*
X16Y899D01*
X16Y900D01*
X17Y901D01*
X17Y902D01*
X18Y903D01*
X19Y904D01*
X19Y905D01*
X20Y906D01*
X21Y907D01*
X21Y908D01*
X22Y909D01*
X23Y910D01*
X23Y911D01*
X24Y912D01*
X25Y913D01*
X26Y914D01*
X27Y915D01*
X27Y916D01*
X28Y917D01*
X29Y918D01*
X30Y919D01*
X31Y920D01*
X32Y921D01*
X33Y922D01*
X34Y923D01*
X35Y924D01*
X35Y925D01*
X36Y925D01*
X37Y926D01*
X38Y927D01*
X39Y928D01*
X40Y929D01*
X41Y930D01*
X42Y931D01*
X43Y932D01*
X44Y933D01*
X45Y933D01*
X46Y934D01*
X47Y935D01*
X48Y936D01*
X49Y936D01*
X50Y937D01*
X51Y938D01*
X52Y938D01*
X53Y939D01*
X54Y940D01*
X55Y940D01*
X56Y941D01*
X57Y942D01*
X58Y942D01*
X59Y943D01*
X60Y943D01*
X61Y944D01*
X62Y945D01*
X63Y945D01*
X64Y946D01*
X65Y946D01*
X66Y947D01*
X67Y947D01*
X68Y948D01*
X69Y948D01*
X70Y948D01*
X71Y949D01*
X72Y949D01*
X73Y950D01*
X74Y950D01*
X75Y951D01*
X76Y951D01*
X77Y951D01*
X78Y952D01*
X79Y952D01*
X80Y952D01*
X81Y953D01*
X82Y953D01*
X83Y953D01*
X84Y954D01*
X85Y954D01*
X86Y954D01*
X87Y955D01*
X88Y955D01*
X89Y955D01*
X90Y955D01*
X91Y956D01*
X92Y956D01*
X93Y956D01*
X94Y956D01*
X95Y956D01*
X96Y957D01*
X97Y957D01*
X98Y957D01*
X99Y957D01*
X100Y957D01*
X101Y957D01*
X102Y958D01*
X103Y958D01*
X104Y958D01*
X105Y958D01*
X106Y958D01*
X107Y958D01*
X108Y958D01*
X109Y958D01*
X110Y958D01*
X111Y958D01*
X112Y958D01*
X113Y959D01*
X114Y959D01*
X115Y959D01*
X116Y959D01*
X117Y959D01*
X118Y959D01*
X119Y959D01*
X120Y959D01*
X121Y959D01*
X122Y959D01*
X123Y959D01*
X124Y959D01*
X125Y959D01*
X126Y959D01*
X127Y959D01*
X128Y959D01*
X129Y959D01*
X130Y959D01*
X131Y959D01*
X132Y959D01*
X133Y959D01*
X134Y959D01*
X135Y959D01*
X136Y959D01*
X137Y959D01*
X138Y959D01*
X139Y959D01*
X140Y959D01*
X141Y959D01*
X142Y959D01*
X143Y959D01*
X144Y959D01*
X145Y959D01*
X146Y959D01*
X147Y959D01*
X148Y959D01*
X149Y959D01*
X150Y959D01*
X151Y959D01*
X152Y959D01*
X153Y959D01*
X154Y959D01*
X155Y959D01*
X156Y959D01*
X157Y959D01*
X158Y959D01*
X159Y959D01*
X160Y959D01*
X161Y959D01*
X162Y959D01*
X163Y959D01*
X164Y959D01*
X165Y959D01*
X166Y959D01*
X167Y959D01*
X168Y959D01*
X169Y959D01*
X170Y959D01*
X171Y959D01*
X172Y959D01*
X173Y959D01*
X174Y959D01*
X175Y959D01*
X176Y959D01*
X177Y959D01*
X178Y959D01*
X179Y959D01*
X180Y959D01*
X181Y959D01*
X182Y959D01*
X183Y959D01*
X184Y959D01*
X185Y959D01*
X186Y959D01*
X187Y959D01*
X188Y959D01*
X189Y959D01*
X190Y959D01*
X191Y959D01*
X192Y959D01*
X193Y959D01*
X194Y959D01*
X195Y959D01*
X196Y959D01*
X197Y959D01*
X198Y959D01*
X199Y959D01*
X200Y959D01*
X201Y959D01*
X202Y959D01*
X203Y959D01*
X204Y959D01*
X205Y959D01*
X206Y959D01*
X207Y959D01*
X208Y959D01*
X209Y959D01*
X210Y959D01*
X211Y959D01*
X212Y959D01*
X213Y959D01*
X214Y959D01*
X215Y959D01*
X216Y959D01*
X217Y959D01*
X218Y959D01*
X219Y959D01*
X220Y959D01*
X221Y959D01*
X222Y959D01*
X223Y959D01*
X224Y959D01*
X225Y959D01*
X226Y959D01*
X227Y959D01*
X228Y959D01*
X229Y959D01*
X230Y959D01*
X231Y959D01*
X232Y959D01*
X233Y959D01*
X234Y959D01*
X235Y959D01*
X236Y959D01*
X237Y959D01*
X238Y959D01*
X239Y959D01*
X240Y959D01*
X241Y959D01*
X242Y959D01*
X243Y959D01*
X244Y959D01*
X245Y959D01*
X246Y959D01*
X247Y959D01*
X248Y959D01*
X249Y959D01*
X250Y959D01*
X251Y959D01*
X252Y959D01*
X253Y959D01*
X254Y959D01*
X255Y959D01*
X256Y959D01*
X257Y959D01*
X258Y959D01*
X259Y959D01*
X260Y959D01*
X261Y959D01*
X262Y959D01*
X263Y959D01*
X264Y959D01*
X265Y959D01*
X266Y959D01*
X267Y959D01*
X268Y959D01*
X269Y959D01*
X270Y959D01*
X271Y959D01*
X272Y959D01*
X273Y959D01*
X274Y959D01*
X275Y959D01*
X276Y959D01*
X277Y959D01*
X278Y959D01*
X279Y959D01*
X280Y959D01*
X281Y959D01*
X282Y959D01*
X283Y959D01*
X284Y959D01*
X285Y959D01*
X286Y959D01*
X287Y959D01*
X288Y959D01*
X289Y959D01*
X290Y959D01*
X291Y959D01*
X292Y959D01*
X293Y959D01*
X294Y959D01*
X295Y959D01*
X296Y959D01*
X297Y959D01*
X298Y959D01*
X299Y959D01*
X300Y959D01*
X301Y959D01*
X302Y959D01*
X303Y959D01*
X304Y959D01*
X305Y959D01*
X306Y959D01*
X307Y959D01*
X308Y959D01*
X309Y959D01*
X310Y959D01*
X311Y959D01*
X312Y959D01*
X313Y959D01*
X314Y959D01*
X315Y959D01*
X316Y959D01*
X317Y959D01*
X318Y959D01*
X319Y959D01*
X320Y959D01*
X321Y959D01*
X322Y959D01*
X323Y959D01*
X324Y959D01*
X325Y959D01*
X326Y959D01*
X327Y959D01*
X328Y959D01*
X329Y959D01*
X330Y959D01*
X331Y959D01*
X332Y959D01*
X333Y959D01*
X334Y959D01*
X335Y959D01*
X336Y959D01*
X337Y959D01*
X338Y959D01*
X339Y959D01*
X340Y959D01*
X341Y959D01*
X342Y959D01*
X343Y959D01*
X344Y959D01*
X345Y959D01*
X346Y959D01*
X347Y959D01*
X348Y959D01*
X349Y959D01*
X350Y959D01*
X351Y959D01*
X352Y959D01*
X353Y959D01*
X354Y959D01*
X355Y959D01*
X356Y959D01*
X357Y959D01*
X358Y959D01*
X359Y959D01*
X360Y959D01*
X361Y959D01*
X362Y959D01*
X363Y959D01*
X364Y959D01*
X365Y959D01*
X366Y959D01*
X367Y959D01*
X368Y959D01*
X369Y959D01*
X370Y959D01*
X371Y959D01*
X372Y959D01*
X373Y959D01*
X374Y959D01*
X375Y959D01*
X376Y959D01*
X377Y959D01*
X378Y959D01*
X379Y959D01*
X380Y959D01*
X381Y959D01*
X382Y959D01*
X383Y959D01*
X384Y959D01*
X385Y959D01*
X386Y959D01*
X387Y959D01*
X388Y959D01*
X389Y959D01*
X390Y959D01*
X391Y959D01*
X392Y959D01*
X393Y959D01*
X394Y959D01*
X395Y959D01*
X396Y959D01*
X397Y959D01*
X398Y959D01*
X399Y959D01*
X400Y959D01*
X401Y959D01*
X402Y959D01*
X403Y959D01*
X404Y959D01*
X405Y959D01*
X406Y959D01*
X407Y959D01*
X408Y959D01*
X409Y959D01*
X410Y959D01*
X411Y959D01*
X412Y959D01*
X413Y959D01*
X414Y959D01*
X415Y959D01*
X416Y959D01*
X417Y959D01*
X418Y959D01*
X419Y959D01*
X420Y959D01*
X421Y959D01*
X422Y959D01*
X423Y959D01*
X424Y959D01*
X425Y959D01*
X426Y959D01*
X427Y959D01*
X428Y959D01*
X429Y959D01*
X430Y959D01*
X431Y959D01*
X432Y959D01*
X433Y959D01*
X434Y959D01*
X435Y959D01*
X436Y959D01*
X437Y959D01*
X438Y959D01*
X439Y959D01*
X440Y959D01*
X441Y959D01*
X442Y959D01*
X443Y959D01*
X444Y959D01*
X445Y959D01*
X446Y959D01*
X447Y959D01*
X448Y959D01*
X449Y959D01*
X450Y959D01*
X451Y959D01*
X452Y959D01*
X453Y959D01*
X454Y959D01*
X455Y959D01*
X456Y959D01*
X457Y959D01*
X458Y959D01*
X459Y959D01*
X460Y959D01*
X461Y959D01*
X462Y959D01*
X463Y959D01*
X464Y959D01*
X465Y959D01*
X466Y959D01*
X467Y959D01*
X468Y959D01*
X469Y959D01*
X470Y959D01*
X471Y959D01*
X472Y959D01*
X473Y959D01*
X474Y959D01*
X475Y959D01*
X476Y959D01*
X477Y959D01*
X478Y959D01*
X479Y959D01*
X480Y959D01*
X481Y959D01*
X482Y959D01*
X483Y959D01*
X484Y959D01*
X485Y959D01*
X486Y959D01*
X487Y959D01*
X488Y959D01*
X489Y959D01*
X490Y959D01*
X491Y959D01*
X492Y959D01*
X493Y959D01*
X494Y959D01*
X495Y959D01*
X496Y959D01*
X497Y959D01*
X498Y959D01*
X499Y959D01*
X500Y959D01*
X501Y959D01*
X502Y959D01*
X503Y959D01*
X504Y959D01*
X505Y959D01*
X506Y959D01*
X507Y959D01*
X508Y959D01*
X509Y959D01*
X510Y959D01*
X511Y959D01*
X512Y959D01*
X513Y959D01*
X514Y959D01*
X515Y959D01*
X516Y959D01*
X517Y959D01*
X518Y959D01*
X519Y959D01*
X520Y959D01*
X521Y959D01*
X522Y959D01*
X523Y959D01*
X524Y959D01*
X525Y959D01*
X526Y959D01*
X527Y959D01*
X528Y959D01*
X529Y959D01*
X530Y959D01*
X531Y959D01*
X532Y959D01*
X533Y959D01*
X534Y959D01*
X535Y959D01*
X536Y959D01*
X537Y959D01*
X538Y959D01*
X539Y959D01*
X540Y959D01*
X541Y959D01*
X542Y959D01*
X543Y959D01*
X544Y959D01*
X545Y959D01*
X546Y959D01*
X547Y959D01*
X548Y959D01*
X549Y959D01*
X550Y959D01*
X551Y959D01*
X552Y959D01*
X553Y959D01*
X554Y959D01*
X555Y959D01*
X556Y959D01*
X557Y959D01*
X558Y959D01*
X559Y959D01*
X560Y959D01*
X561Y959D01*
X562Y959D01*
X563Y959D01*
X564Y959D01*
X565Y959D01*
X566Y959D01*
X567Y959D01*
X568Y959D01*
X569Y959D01*
X570Y959D01*
X571Y959D01*
X572Y959D01*
X573Y959D01*
X574Y959D01*
X575Y959D01*
X576Y959D01*
X577Y959D01*
X578Y959D01*
X579Y959D01*
X580Y959D01*
X581Y959D01*
X582Y959D01*
X583Y959D01*
X584Y959D01*
X585Y959D01*
X586Y959D01*
X587Y959D01*
X588Y959D01*
X589Y959D01*
X590Y959D01*
X591Y959D01*
X592Y959D01*
X593Y959D01*
X594Y959D01*
X595Y959D01*
X596Y959D01*
X597Y959D01*
X598Y959D01*
X599Y959D01*
X600Y959D01*
X601Y960D01*
X602Y960D01*
X603Y960D01*
X604Y960D01*
X605Y961D01*
X606Y961D01*
X607Y961D01*
X608Y962D01*
X609Y962D01*
X610Y963D01*
X611Y963D01*
X612Y964D01*
X613Y964D01*
X614Y965D01*
X615Y966D01*
X616Y966D01*
X617Y967D01*
X618Y968D01*
X619Y969D01*
X620Y970D01*
X621Y971D01*
X622Y972D01*
X623Y973D01*
X624Y974D01*
X625Y975D01*
X626Y976D01*
X626Y977D01*
X627Y978D01*
X627Y979D01*
X628Y980D01*
X629Y981D01*
X629Y982D01*
X630Y983D01*
X630Y985D01*
X631Y986D01*
X631Y988D01*
X632Y989D01*
X632Y992D01*
X633Y993D01*
X633Y1006D01*
X632Y1007D01*
X632Y1010D01*
X631Y1011D01*
X631Y1013D01*
X630Y1014D01*
X630Y1015D01*
X629Y1016D01*
X629Y1017D01*
X628Y1018D01*
X628Y1019D01*
X627Y1020D01*
X627Y1021D01*
X626Y1022D01*
X625Y1023D01*
X625Y1024D01*
X624Y1025D01*
X623Y1026D01*
X622Y1027D01*
X621Y1028D01*
X620Y1029D01*
X619Y1030D01*
X618Y1031D01*
X617Y1032D01*
X616Y1032D01*
X615Y1033D01*
X614Y1034D01*
X613Y1034D01*
X612Y1035D01*
X611Y1035D01*
X610Y1036D01*
X609Y1036D01*
X608Y1037D01*
X607Y1037D01*
X606Y1038D01*
X605Y1038D01*
X604Y1038D01*
X603Y1039D01*
X602Y1039D01*
X601Y1039D01*
X600Y1039D01*
X599Y1039D01*
X598Y1040D01*
X597Y1040D01*
X596Y1040D01*
X595Y1040D01*
X594Y1040D01*
X593Y1040D01*
X592Y1040D01*
X591Y1040D01*
X590Y1040D01*
X589Y1040D01*
X588Y1040D01*
X587Y1040D01*
X586Y1040D01*
X585Y1040D01*
X584Y1040D01*
X583Y1040D01*
X582Y1040D01*
X581Y1040D01*
X580Y1040D01*
X579Y1040D01*
X578Y1040D01*
X577Y1040D01*
X576Y1040D01*
X575Y1040D01*
X574Y1040D01*
X573Y1040D01*
X572Y1040D01*
X571Y1040D01*
X570Y1040D01*
X569Y1040D01*
X568Y1040D01*
X567Y1040D01*
X566Y1040D01*
X565Y1040D01*
X564Y1040D01*
X563Y1040D01*
X562Y1040D01*
X561Y1040D01*
X560Y1040D01*
X559Y1040D01*
X558Y1040D01*
X557Y1040D01*
X556Y1040D01*
X555Y1040D01*
X554Y1040D01*
X553Y1040D01*
X552Y1040D01*
X551Y1040D01*
X550Y1040D01*
X549Y1040D01*
X548Y1040D01*
X547Y1040D01*
X546Y1040D01*
X545Y1040D01*
X544Y1040D01*
X543Y1040D01*
X542Y1040D01*
X541Y1040D01*
X540Y1040D01*
X539Y1040D01*
X538Y1040D01*
X537Y1040D01*
X536Y1040D01*
X535Y1040D01*
X534Y1040D01*
X533Y1040D01*
X532Y1040D01*
X531Y1040D01*
X530Y1040D01*
X529Y1040D01*
X528Y1040D01*
X527Y1040D01*
X526Y1040D01*
X525Y1040D01*
X524Y1040D01*
X523Y1040D01*
X522Y1040D01*
X521Y1040D01*
X520Y1040D01*
X519Y1040D01*
X518Y1040D01*
X517Y1040D01*
X516Y1040D01*
X515Y1040D01*
X514Y1040D01*
X513Y1040D01*
X512Y1040D01*
X511Y1040D01*
X510Y1040D01*
X509Y1040D01*
X508Y1040D01*
X507Y1040D01*
X506Y1040D01*
X505Y1040D01*
X504Y1040D01*
X503Y1040D01*
X502Y1040D01*
X501Y1040D01*
X500Y1040D01*
X499Y1040D01*
X498Y1040D01*
X497Y1040D01*
X496Y1040D01*
X495Y1040D01*
X494Y1040D01*
X493Y1040D01*
X492Y1040D01*
X491Y1040D01*
X490Y1040D01*
X489Y1040D01*
X488Y1040D01*
X487Y1040D01*
X486Y1040D01*
X485Y1040D01*
X484Y1040D01*
X483Y1040D01*
X482Y1040D01*
X481Y1040D01*
X480Y1040D01*
X479Y1040D01*
X478Y1040D01*
X477Y1040D01*
X476Y1040D01*
X475Y1040D01*
X474Y1040D01*
X473Y1040D01*
X472Y1040D01*
X471Y1040D01*
X470Y1040D01*
X469Y1040D01*
X468Y1040D01*
X467Y1040D01*
X466Y1040D01*
X465Y1040D01*
X464Y1040D01*
X463Y1040D01*
X462Y1040D01*
X461Y1040D01*
X460Y1040D01*
X459Y1040D01*
X458Y1040D01*
X457Y1040D01*
X456Y1040D01*
X455Y1040D01*
X454Y1040D01*
X453Y1040D01*
X452Y1040D01*
X451Y1040D01*
X450Y1040D01*
X449Y1040D01*
X448Y1040D01*
X447Y1040D01*
X446Y1040D01*
X445Y1040D01*
X444Y1040D01*
X443Y1040D01*
X442Y1040D01*
X441Y1040D01*
X440Y1040D01*
X439Y1040D01*
X438Y1040D01*
X437Y1040D01*
X436Y1040D01*
X435Y1040D01*
X434Y1040D01*
X433Y1040D01*
X432Y1040D01*
X431Y1040D01*
X430Y1040D01*
X429Y1040D01*
X428Y1040D01*
X427Y1040D01*
X426Y1040D01*
X425Y1040D01*
X424Y1040D01*
X423Y1040D01*
X422Y1040D01*
X421Y1040D01*
X420Y1040D01*
X419Y1040D01*
X418Y1040D01*
X417Y1040D01*
X416Y1040D01*
X415Y1040D01*
X414Y1040D01*
X413Y1040D01*
X412Y1040D01*
X411Y1040D01*
X410Y1040D01*
X409Y1040D01*
X408Y1040D01*
X407Y1040D01*
X406Y1040D01*
X405Y1040D01*
X404Y1040D01*
X403Y1040D01*
X402Y1040D01*
X401Y1040D01*
X400Y1040D01*
X399Y1040D01*
X398Y1040D01*
X397Y1040D01*
X396Y1040D01*
X395Y1040D01*
X394Y1040D01*
X393Y1040D01*
X392Y1040D01*
X391Y1040D01*
X390Y1040D01*
X389Y1040D01*
X388Y1040D01*
X387Y1040D01*
X386Y1040D01*
X385Y1040D01*
X384Y1040D01*
X383Y1040D01*
X382Y1040D01*
X381Y1040D01*
X380Y1040D01*
X379Y1040D01*
X378Y1040D01*
X377Y1040D01*
X376Y1040D01*
X375Y1040D01*
X374Y1040D01*
X373Y1040D01*
X372Y1040D01*
X371Y1040D01*
X370Y1040D01*
X369Y1040D01*
X368Y1040D01*
X367Y1040D01*
X366Y1040D01*
X365Y1040D01*
X364Y1040D01*
X363Y1040D01*
X362Y1040D01*
X361Y1040D01*
X360Y1040D01*
X359Y1040D01*
X358Y1040D01*
X357Y1040D01*
X356Y1040D01*
X355Y1040D01*
X354Y1040D01*
X353Y1040D01*
X352Y1040D01*
X351Y1040D01*
X350Y1040D01*
X349Y1040D01*
X348Y1040D01*
X347Y1040D01*
X346Y1040D01*
X345Y1040D01*
X344Y1040D01*
X343Y1040D01*
X342Y1040D01*
X341Y1040D01*
X340Y1040D01*
X339Y1040D01*
X338Y1040D01*
X337Y1040D01*
X336Y1040D01*
X335Y1040D01*
X334Y1040D01*
X333Y1040D01*
X332Y1040D01*
X331Y1040D01*
X330Y1040D01*
X329Y1040D01*
X328Y1040D01*
X327Y1040D01*
X326Y1040D01*
X325Y1040D01*
X324Y1040D01*
X323Y1040D01*
X322Y1040D01*
X321Y1040D01*
X320Y1040D01*
X319Y1040D01*
X318Y1040D01*
X317Y1040D01*
X316Y1040D01*
X315Y1040D01*
X314Y1040D01*
X313Y1040D01*
X312Y1040D01*
X311Y1040D01*
X310Y1040D01*
X309Y1040D01*
X308Y1040D01*
X307Y1040D01*
X306Y1040D01*
X305Y1040D01*
X304Y1040D01*
X303Y1040D01*
X302Y1040D01*
X301Y1040D01*
X300Y1040D01*
X299Y1040D01*
X298Y1040D01*
X297Y1040D01*
X296Y1040D01*
X295Y1040D01*
X294Y1040D01*
X293Y1040D01*
X292Y1040D01*
X291Y1040D01*
X290Y1040D01*
X289Y1040D01*
X288Y1040D01*
X287Y1040D01*
X286Y1040D01*
X285Y1040D01*
X284Y1040D01*
X283Y1040D01*
X282Y1040D01*
X281Y1040D01*
X280Y1040D01*
X279Y1040D01*
X278Y1040D01*
X277Y1040D01*
X276Y1040D01*
X275Y1040D01*
X274Y1040D01*
X273Y1040D01*
X272Y1040D01*
X271Y1040D01*
X270Y1040D01*
X269Y1040D01*
X268Y1040D01*
X267Y1040D01*
X266Y1040D01*
X265Y1040D01*
X264Y1040D01*
X263Y1040D01*
X262Y1040D01*
X261Y1040D01*
X260Y1040D01*
X259Y1040D01*
X258Y1040D01*
X257Y1040D01*
X256Y1040D01*
X255Y1040D01*
X254Y1040D01*
X253Y1040D01*
X252Y1040D01*
X251Y1040D01*
X250Y1040D01*
X249Y1040D01*
X248Y1040D01*
X247Y1040D01*
X246Y1040D01*
X245Y1040D01*
X244Y1040D01*
X243Y1040D01*
X242Y1040D01*
X241Y1040D01*
X240Y1040D01*
X239Y1040D01*
X238Y1040D01*
X237Y1040D01*
X236Y1040D01*
X235Y1040D01*
X234Y1040D01*
X233Y1040D01*
X232Y1040D01*
X231Y1040D01*
X230Y1040D01*
X229Y1040D01*
X228Y1040D01*
X227Y1040D01*
X226Y1040D01*
X225Y1040D01*
X224Y1040D01*
X223Y1040D01*
X222Y1040D01*
X221Y1040D01*
X220Y1040D01*
X219Y1040D01*
X218Y1040D01*
X217Y1040D01*
X216Y1040D01*
X215Y1040D01*
X214Y1040D01*
X213Y1040D01*
X212Y1040D01*
X211Y1040D01*
X210Y1040D01*
X209Y1040D01*
X208Y1040D01*
X207Y1040D01*
X206Y1040D01*
X205Y1040D01*
X204Y1040D01*
X203Y1040D01*
X202Y1040D01*
X201Y1040D01*
X200Y1040D01*
X199Y1040D01*
X198Y1040D01*
X197Y1040D01*
X196Y1040D01*
X195Y1040D01*
X194Y1040D01*
X193Y1040D01*
X192Y1040D01*
X191Y1040D01*
X190Y1040D01*
X189Y1040D01*
X188Y1040D01*
X187Y1040D01*
X186Y1040D01*
X185Y1040D01*
X184Y1040D01*
X183Y1040D01*
X182Y1040D01*
X181Y1040D01*
X180Y1040D01*
X179Y1040D01*
X178Y1040D01*
X177Y1040D01*
X176Y1040D01*
X175Y1040D01*
X174Y1040D01*
X173Y1040D01*
X172Y1040D01*
X171Y1040D01*
X170Y1040D01*
X169Y1040D01*
X168Y1040D01*
X167Y1040D01*
X166Y1040D01*
X165Y1040D01*
X164Y1040D01*
X163Y1040D01*
X162Y1040D01*
X161Y1040D01*
X160Y1040D01*
X159Y1040D01*
X158Y1040D01*
X157Y1040D01*
X156Y1040D01*
X155Y1040D01*
X154Y1040D01*
X153Y1040D01*
X152Y1040D01*
X151Y1040D01*
X150Y1040D01*
X149Y1040D01*
X148Y1040D01*
X147Y1040D01*
X146Y1040D01*
X145Y1040D01*
X144Y1040D01*
X143Y1040D01*
X142Y1040D01*
X141Y1040D01*
X140Y1040D01*
X139Y1040D01*
X138Y1040D01*
X137Y1040D01*
X136Y1040D01*
X135Y1040D01*
X134Y1040D01*
X133Y1040D01*
X132Y1040D01*
X131Y1040D01*
X130Y1040D01*
X129Y1040D01*
X128Y1040D01*
X127Y1040D01*
X126Y1040D01*
X125Y1040D01*
X124Y1040D01*
X123Y1040D01*
X122Y1040D01*
X121Y1040D01*
X120Y1040D01*
X119Y1040D01*
X118Y1040D01*
X117Y1040D01*
X116Y1040D01*
X115Y1040D01*
X114Y1040D01*
X113Y1040D01*
X112Y1040D01*
X111Y1040D01*
X110Y1040D01*
X109Y1040D01*
X108Y1041D01*
X107Y1041D01*
X106Y1041D01*
X105Y1041D01*
X104Y1041D01*
X103Y1041D01*
X102Y1041D01*
X101Y1041D01*
X100Y1041D01*
X99Y1042D01*
X98Y1042D01*
X97Y1042D01*
X96Y1042D01*
X95Y1042D01*
X94Y1043D01*
X93Y1043D01*
X92Y1043D01*
X91Y1043D01*
X90Y1043D01*
X89Y1044D01*
X88Y1044D01*
X87Y1044D01*
X86Y1045D01*
X85Y1045D01*
X84Y1045D01*
X83Y1045D01*
X82Y1046D01*
X81Y1046D01*
X80Y1046D01*
X79Y1047D01*
X78Y1047D01*
X77Y1047D01*
X76Y1048D01*
X75Y1048D01*
X74Y1049D01*
X73Y1049D01*
X72Y1049D01*
X71Y1050D01*
X70Y1050D01*
X69Y1051D01*
X68Y1051D01*
X67Y1052D01*
X66Y1052D01*
X65Y1053D01*
X64Y1053D01*
X63Y1054D01*
X62Y1054D01*
X61Y1055D01*
X60Y1055D01*
X59Y1056D01*
X58Y1056D01*
X57Y1057D01*
X56Y1058D01*
X55Y1058D01*
X54Y1059D01*
X53Y1060D01*
X52Y1060D01*
X51Y1061D01*
X50Y1062D01*
X49Y1062D01*
X48Y1063D01*
X47Y1064D01*
X46Y1065D01*
X45Y1065D01*
X44Y1066D01*
X43Y1067D01*
X42Y1068D01*
X41Y1069D01*
X40Y1070D01*
X39Y1070D01*
X38Y1071D01*
X37Y1072D01*
X36Y1073D01*
X35Y1074D01*
X34Y1075D01*
X33Y1076D01*
X32Y1077D01*
X31Y1078D01*
X31Y1079D01*
X30Y1080D01*
X29Y1081D01*
X28Y1082D01*
X27Y1083D01*
X26Y1084D01*
X26Y1085D01*
X25Y1086D01*
X24Y1087D01*
X23Y1088D01*
X23Y1089D01*
X22Y1090D01*
X21Y1091D01*
X20Y1092D01*
X20Y1093D01*
X19Y1094D01*
X19Y1095D01*
X18Y1096D01*
X17Y1097D01*
X17Y1098D01*
X16Y1099D01*
X16Y1100D01*
X15Y1101D01*
X14Y1102D01*
X14Y1103D01*
X13Y1104D01*
X13Y1105D01*
X12Y1106D01*
X12Y1107D01*
X11Y1108D01*
X11Y1110D01*
X10Y1111D01*
X10Y1112D01*
X9Y1113D01*
X9Y1115D01*
X8Y1116D01*
X8Y1117D01*
X7Y1118D01*
X7Y1120D01*
X6Y1121D01*
X6Y1123D01*
X5Y1124D01*
X5Y1127D01*
X4Y1128D01*
X4Y1131D01*
X3Y1132D01*
X3Y1136D01*
X2Y1137D01*
X2Y1143D01*
X1Y1144D01*
X1Y1865D01*
X2Y1866D01*
X2Y1871D01*
X3Y1872D01*
X3Y1876D01*
X4Y1877D01*
X4Y1881D01*
X5Y1882D01*
X5Y1884D01*
X6Y1885D01*
X6Y1887D01*
X7Y1888D01*
X7Y1890D01*
X8Y1891D01*
X8Y1893D01*
X9Y1894D01*
X9Y1895D01*
X10Y1896D01*
X10Y1898D01*
X11Y1899D01*
X11Y1900D01*
X12Y1901D01*
X12Y1902D01*
X13Y1903D01*
X13Y1904D01*
X14Y1905D01*
X14Y1906D01*
X15Y1907D01*
X15Y1908D01*
X16Y1909D01*
X16Y1910D01*
X17Y1911D01*
X18Y1912D01*
X18Y1913D01*
X19Y1914D01*
X19Y1915D01*
X20Y1916D01*
X21Y1917D01*
X21Y1918D01*
X22Y1919D01*
X23Y1920D01*
X24Y1921D01*
X24Y1922D01*
X25Y1923D01*
X26Y1924D01*
X27Y1925D01*
X28Y1926D01*
X28Y1927D01*
X29Y1928D01*
X30Y1929D01*
X31Y1930D01*
X32Y1931D01*
X33Y1932D01*
X34Y1933D01*
X35Y1934D01*
X36Y1935D01*
X37Y1936D01*
X38Y1937D01*
X39Y1938D01*
X40Y1939D01*
X41Y1940D01*
X42Y1941D01*
X43Y1941D01*
X44Y1942D01*
X45Y1943D01*
X46Y1944D01*
X47Y1945D01*
X48Y1945D01*
X49Y1946D01*
X50Y1947D01*
X51Y1947D01*
X52Y1948D01*
X53Y1949D01*
X54Y1949D01*
X55Y1950D01*
X56Y1951D01*
X57Y1951D01*
X58Y1952D01*
X59Y1953D01*
X60Y1953D01*
X61Y1954D01*
X62Y1954D01*
X63Y1955D01*
X64Y1955D01*
X65Y1956D01*
X66Y1956D01*
X67Y1957D01*
X68Y1957D01*
X69Y1958D01*
X70Y1958D01*
X71Y1959D01*
X72Y1959D01*
X73Y1959D01*
X74Y1960D01*
X75Y1960D01*
X76Y1961D01*
X77Y1961D01*
X78Y1961D01*
X79Y1962D01*
X80Y1962D01*
X81Y1962D01*
X82Y1963D01*
X83Y1963D01*
X84Y1963D01*
X85Y1964D01*
X86Y1964D01*
X87Y1964D01*
X88Y1965D01*
X89Y1965D01*
X90Y1965D01*
X91Y1965D01*
X92Y1965D01*
X93Y1966D01*
X94Y1966D01*
X95Y1966D01*
X96Y1966D01*
X97Y1966D01*
X98Y1967D01*
X99Y1967D01*
X100Y1967D01*
X101Y1967D01*
X102Y1967D01*
X103Y1967D01*
X104Y1968D01*
D02*
G04 End of contour*
M02*