; NON-PLATED HOLES START AT T1
; THROUGH (PLATED) HOLES START AT T100
M48
INCH
T1C0.098425
T2C0.118110
T100C0.035000
T101C0.032000
T102C0.038000
T103C0.041000
T104C0.030000
%
T1
X007687Y010018
X012018Y010018
X009853Y010018
T2
X018121Y002144
X001585Y002144
X018121Y017498
X001585Y007655
X001585Y017498
X018121Y007655
X001585Y012380
X018121Y012380
T100
X014266Y007967
X013264Y018466
X010266Y007967
X010264Y016466
X006764Y017466
X009764Y017466
X010266Y003967
X006264Y016466
X012264Y018466
X013266Y007967
T101
X012264Y013466
X012264Y016466
X015266Y004967
X015264Y013466
X012264Y015466
X012266Y002967
X015264Y016466
X015266Y005967
X015264Y014466
X012266Y004967
X015266Y002967
X015266Y003967
X015264Y015466
X012266Y005967
X012264Y014466
X012266Y003967
T102
X004264Y016466
X005266Y005467
X010764Y013466
X012766Y000967
X005266Y004467
X011766Y000967
X007266Y007967
X004264Y017466
X010764Y012466
X008266Y007967
T103
X003764Y013466
X009266Y001967
X007764Y014466
X007764Y012466
X009266Y003967
X005266Y002967
T104
X011266Y004967
X011266Y003965
X014262Y012466
X015264Y012466
X011264Y016466
X011264Y015464
T00
M30
